<svg width="390" height="754" viewBox="0 0 390 754" fill="none" xmlns="http://www.w3.org/2000/svg">
<g clip-path="url(#clip0_60_56)">
<path d="M447.141 18.274C439.399 45.2757 420.112 66.3098 396.416 80.6398C357.344 104.25 312.36 114.221 266.863 113.189C238.114 112.537 209.407 107.479 181.947 98.658C155.304 90.0795 129.262 78.9457 101.499 74.2264C29.2515 61.8054 -51.9387 92.9017 -97.4258 149C-69.1799 93.1428 -9.87261 52.6784 53.3324 41.2196C70.8979 38.0048 88.7278 37.016 106.305 38.6546C143.285 41.1506 176.89 57.032 210.63 66.4606C283.09 85.4042 414.585 90.1134 449.239 9.3306C448.692 12.3328 448.035 15.346 447.141 18.274Z" fill="#B62F1D"/>
<path d="M196.096 178.058C194.837 180.126 192.696 181.347 190.584 182.528C191.477 183.82 191.444 185.555 191.046 187.074C190.647 188.596 189.923 190.018 189.518 191.537C189.115 193.057 189.218 195.068 190.099 196.364C188.886 196.418 187.868 197.389 187.373 198.506C186.883 199.623 186.805 200.86 186.701 202.075C186.596 203.288 186.433 204.542 185.801 205.579L185.827 205.585C187.57 206.276 189.381 207.015 190.616 208.43C190.974 208.847 191.281 209.318 191.471 209.825C191.902 210.999 191.725 212.33 191.242 213.478C190.759 214.633 189.997 215.644 189.246 216.642C190.226 217.616 191.829 218.712 192.273 220.023C192.553 220.858 192.579 221.76 192.704 222.633C193.135 225.725 194.777 228.636 194.675 231.761V231.767C194.667 232.087 194.434 232.354 194.16 232.518C193.886 232.682 193.579 232.772 193.299 232.915C192.326 233.412 191.812 234.514 191.608 235.592C191.406 236.668 191.438 237.779 191.211 238.846C190.747 241.025 189.079 242.794 187.629 244.492C188.418 245.484 189.22 246.488 189.67 247.67C190.119 248.85 190.173 250.253 189.5 251.323C188.678 252.634 186.703 253.262 185.208 253.653C186.31 254.722 187.478 255.905 187.698 257.424C187.848 258.482 187.523 259.558 187.66 260.615C187.776 261.527 188.24 262.37 188.833 263.07C189.426 263.769 190.15 264.356 190.862 264.937C189.569 266.874 189.7 269.647 190.308 271.899C190.915 274.149 191.99 276.252 192.585 278.508C193.348 281.386 193.295 284.472 192.448 287.323C188.58 288.242 184.098 288.25 180.333 286.963C178.605 286.37 176.949 285.556 175.162 285.17C173.373 284.785 171.22 284.844 169.766 285.945C169.101 284.851 168.077 283.975 166.891 283.501C165.513 282.946 163.987 282.926 162.519 282.691C161.053 282.455 159.422 281.823 158.593 280.59C158.242 282.134 157.518 283.597 156.493 284.812C156.127 285.241 155.684 285.667 155.123 285.751C154.7 285.81 154.281 285.665 153.884 285.509C152.383 284.922 150.903 284.022 149.584 283.096C148.803 283.057 148.098 283.564 147.556 284.127C147.014 284.687 146.544 285.346 145.887 285.763C144.196 286.826 141.9 285.998 140.041 286.722C138.516 287.315 137.224 288.757 136.389 290.168C135.854 289.71 135.138 289.553 134.441 289.496C133.741 289.436 133.038 289.463 132.353 289.307C131.329 289.078 130.429 288.471 129.431 288.152C128.016 287.696 126.464 287.831 125.055 287.368C123.456 286.847 122.205 285.607 121.017 284.413C119.537 285.521 118.852 285.769 117.128 286.454C116.437 286.728 115.686 286.97 114.962 286.794C114.363 286.644 113.869 286.225 113.431 285.789C112.145 284.511 111.108 282.867 110.39 281.198C108.511 282.161 106.176 281.445 104.16 282.085C102.751 282.535 101.492 283.73 101.003 285.133C99.9846 284.159 98.3611 284.153 97.0177 284.572C95.6743 284.99 94.4597 285.753 93.1163 286.172C91.2944 286.732 89.2742 286.616 87.5321 285.838L87.5382 285.46C86.8798 287.968 85.0866 290.152 82.7576 291.281C82.0992 291.602 81.3692 291.842 80.6515 291.733C80.0463 291.635 79.5023 291.302 79.0075 290.942C77.1856 289.643 75.6337 287.968 74.4723 286.049C72.405 286.401 70.2989 286.753 68.3728 285.918C67.3892 285.495 66.5345 284.783 65.5306 284.409C63.952 283.828 62.0606 284.206 60.8194 285.343C60.572 284.135 59.5353 283.13 58.4128 282.629C57.2841 282.126 56.0388 281.989 54.812 281.86C53.5872 281.729 52.3399 281.586 51.2173 281.069C51.023 282.865 50.3053 284.241 49.0928 285.577C48.602 286.119 48.0091 286.616 47.2914 286.726C46.8292 286.8 46.3528 286.7 45.903 286.577C44.2569 286.133 42.6988 285.391 41.3227 284.39C39.0796 285.159 37.7485 287.51 35.4318 288.025C34.344 288.266 33.1826 288.052 32.0927 288.293C31.238 288.481 30.4753 288.931 29.6329 289.181C28.1525 289.618 26.4717 289.416 25.1467 290.205C24.4474 288.62 22.7461 287.327 21.0817 286.851C20.1043 286.571 19.0676 286.55 18.0698 286.335C16.1641 285.933 14.0825 284.464 12.9293 282.899C12.0746 283.689 11.9171 283.838 10.907 284.425C9.89486 285.012 8.70891 285.358 7.5618 285.188C6.51284 285.033 5.55181 284.431 4.88113 283.615C4.20227 282.801 3.65428 281.443 3.51728 280.392C2.63599 281.801 1.01859 282.67 -0.629478 282.838C-1.75818 282.957 -2.90734 282.775 -4.02172 282.981C-5.58187 283.276 -7.22994 284.607 -7.88426 286.049C-9.26038 285.031 -11.1129 284.9 -12.8142 285.135C-15.548 285.513 -18.0917 286.708 -20.7539 287.42C-23.8252 288.242 -28.1191 288.262 -30.5463 287.327C-31.3989 284.476 -31.446 281.39 -30.6833 278.512C-30.0821 276.262 -29.0066 274.153 -28.4054 271.903C-27.7981 269.652 -27.6611 266.878 -28.9595 264.941C-28.2418 264.36 -27.5241 263.779 -26.9311 263.074C-26.3382 262.368 -25.874 261.536 -25.7575 260.619C-25.6205 259.562 -25.9517 258.488 -25.7963 257.428C-25.5734 255.909 -24.4059 254.729 -23.3058 253.657C-24.8046 253.272 -26.7757 252.64 -27.5977 251.327C-28.2705 250.257 -28.2173 248.854 -27.7674 247.674C-27.3176 246.494 -26.5161 245.482 -25.7268 244.496C-27.1745 242.8 -28.845 241.039 -29.3092 238.853C-29.5362 237.781 -29.4973 236.672 -29.7059 235.596C-29.9103 234.52 -30.4236 233.418 -31.3969 232.921C-31.677 232.778 -31.9899 232.686 -32.2577 232.522C-32.5317 232.359 -32.7648 232.091 -32.773 231.772V231.765C-32.8814 228.646 -31.2394 225.73 -30.8019 222.637C-30.6771 221.764 -30.6526 220.864 -30.3704 220.027C-29.9267 218.716 -28.3298 217.626 -27.3442 216.648C-28.1007 215.65 -28.8593 214.638 -29.3399 213.484C-29.8224 212.33 -30.0065 210.999 -29.5689 209.831C-29.3787 209.316 -29.072 208.845 -28.7142 208.434C-27.4873 207.017 -25.6675 206.274 -23.9254 205.589L-23.8988 205.583C-24.5306 204.54 -24.688 203.292 -24.7985 202.079C-24.9027 200.866 -24.9804 199.619 -25.4712 198.51C-25.9599 197.401 -26.9782 196.424 -28.1968 196.371C-27.3156 195.066 -27.2133 193.061 -27.6161 191.541C-28.021 190.024 -28.7448 188.6 -29.1436 187.078C-29.5423 185.559 -29.575 183.824 -28.6814 182.532C-30.7937 181.351 -32.9345 180.13 -34.1941 178.063C-34.6705 177.287 -34.9956 176.361 -34.8321 175.465C-34.7073 174.788 -34.3168 174.187 -33.8935 173.638C-33.2024 172.745 -32.4049 171.935 -31.5175 171.229C-30.9245 170.761 -30.2866 170.323 -29.8142 169.73C-29.346 169.137 -29.0638 168.327 -29.3194 167.609C-29.4564 166.414 -29.4176 164.978 -29.0393 163.831C-28.616 162.544 -27.6713 161.477 -27.2849 160.178C-26.8412 158.697 -27.1806 156.948 -28.1968 155.787C-27.4853 155.486 -26.7492 155.167 -26.24 154.586C-25.784 154.062 -25.555 153.383 -25.3792 152.712C-24.8843 150.833 -24.7126 148.881 -24.5429 146.951C-24.5245 146.762 -24.5102 146.552 -24.6165 146.39C-24.7126 146.227 -25.3403 146.065 -25.4569 146.214C-27.5977 145.699 -29.3521 143.84 -29.7427 141.667C-30.1353 139.493 -29.1293 137.143 -27.2972 135.918C-28.8961 134.914 -30.0187 133.151 -30.5912 131.351C-31.1638 129.549 -31.3478 127.651 -31.6341 125.783C-31.9203 123.918 -32.3395 122.024 -33.3108 120.406C-31.7895 119.265 -30.1537 118.162 -29.6507 116.407C-29.2806 115.129 -29.3644 113.75 -29.0577 112.454C-28.6406 110.658 -27.4587 109.06 -25.874 108.134C-26.6571 107.142 -27.428 105.855 -27.8186 104.657C-28.2091 103.454 -28.2173 102.08 -27.563 100.996C-26.741 99.619 -24.9089 98.9154 -23.3426 98.5493H-23.2792C-24.0542 97.9766 -24.0235 98.0155 -24.5838 97.2321C-25.2606 96.281 -25.555 95.0988 -25.7309 93.937C-25.9088 92.7773 -25.9865 91.5951 -26.3116 90.4681C-26.285 89.6643 -26.7164 88.7112 -27.3892 88.2734C-27.8329 87.9871 -28.4136 87.8051 -28.6283 87.3224C-28.7653 87.0094 -28.7019 86.6372 -28.524 86.3488C-28.3482 86.0624 -28.0292 85.7945 -27.7286 85.6308C-27.8267 82.4135 -29.1374 79.3741 -29.9656 76.2631C-30.99 72.4444 -31.3049 68.4458 -30.8857 64.5187C-28.4524 63.584 -23.8068 63.813 -20.7355 64.6353C-18.0733 65.3471 -15.5296 66.5415 -12.7958 66.9199C-11.1007 67.1551 -9.24812 67.0242 -7.86382 66.0077C-7.21154 67.4558 -5.56142 68.7873 -4.00332 69.0737C-2.88689 69.2823 -1.73978 69.1003 -0.611076 69.2169C1.04517 69.3866 2.65644 70.2539 3.53568 71.6631C3.67881 70.6138 4.22681 69.2619 4.89953 68.4396C5.57839 67.6235 6.53534 67.0304 7.5802 66.8668C8.73549 66.6909 9.91531 67.0427 10.9254 67.6297C11.9376 68.2105 12.095 68.3599 12.9477 69.1575C14.1091 67.5908 16.1845 66.1222 18.0882 65.7173C19.086 65.5086 20.1227 65.482 21.1022 65.2018C22.7707 64.7253 24.4678 63.4408 25.1651 61.8474C26.4962 62.639 28.1729 62.4283 29.6533 62.8722C30.4876 63.1217 31.2584 63.5717 32.1132 63.7599C33.2071 64.0012 34.3624 63.7885 35.4522 64.0278C37.7689 64.5432 39.098 66.8995 41.3411 67.6624C42.7193 66.6643 44.2774 65.9136 45.9214 65.4759C46.3773 65.3532 46.8476 65.255 47.3098 65.3266C48.0275 65.437 48.6286 65.9341 49.1112 66.4761C50.3176 67.8138 51.0414 69.1903 51.2377 70.9841C52.3583 70.4707 53.6056 70.3254 54.8304 70.1945C56.0572 70.0636 57.3025 69.9266 58.4312 69.4255C59.5599 68.9223 60.5904 67.916 60.8399 66.7113C62.079 67.8526 63.9704 68.2249 65.549 67.644C66.5591 67.2717 67.4076 66.562 68.3932 66.1366C70.3173 65.3082 72.4234 65.66 74.4927 66.0057C75.6541 64.0871 77.204 62.4161 79.0259 61.1111C79.5269 60.7532 80.0626 60.4198 80.6699 60.3216C81.3937 60.2112 82.1237 60.4525 82.778 60.7716C85.107 61.9006 86.9003 64.0871 87.5587 66.5927L87.5525 66.2143C89.2947 65.4391 91.3149 65.3205 93.1347 65.8829C94.4781 66.3002 95.6927 67.0631 97.0361 67.4824C98.3795 67.8997 99.9969 67.8874 101.021 66.922C101.506 68.3169 102.763 69.5196 104.178 69.9696C106.195 70.6077 108.53 69.8898 110.409 70.8572C111.127 69.1862 112.163 67.5479 113.449 66.2634C113.887 65.8257 114.382 65.4084 114.981 65.2591C115.707 65.0832 116.457 65.3246 117.146 65.5986C118.862 66.2838 119.555 66.5334 121.035 67.6419C122.221 66.4454 123.469 65.2141 125.074 64.6844C126.483 64.2221 128.041 64.3591 129.45 63.903C130.447 63.584 131.347 62.9744 132.371 62.7474C133.056 62.5981 133.762 62.6226 134.459 62.5592C135.158 62.4999 135.874 62.3363 136.408 61.8863C137.244 63.2956 138.528 64.7437 140.062 65.3327C141.927 66.0486 144.223 65.2223 145.906 66.29C146.57 66.7072 147.034 67.3679 147.574 67.9283C148.116 68.4887 148.822 68.998 149.603 68.9591C150.921 68.0387 152.408 67.1367 153.903 66.5436C154.301 66.3881 154.719 66.2429 155.142 66.3022C155.702 66.382 156.146 66.8054 156.512 67.2431C157.536 68.456 158.26 69.9184 158.612 71.4647C159.44 70.2314 161.072 69.5973 162.54 69.3621C164.008 69.1289 165.525 69.1085 166.909 68.5542C168.095 68.0776 169.12 67.2042 169.786 66.1079C171.24 67.2186 173.391 67.2758 175.18 66.8831C176.968 66.4986 178.624 65.6764 180.352 65.0893C184.116 63.8028 188.95 63.5962 192.825 64.5146C193.242 68.4417 192.929 72.4424 191.907 76.259C191.07 79.3721 189.76 82.4053 189.668 85.6288C189.968 85.7842 190.283 86.0522 190.465 86.3467C190.647 86.6413 190.706 87.0115 190.569 87.3183C190.353 87.8092 189.772 87.9851 189.328 88.2714C188.657 88.7091 188.226 89.6602 188.253 90.464C187.934 91.5931 187.854 92.7732 187.672 93.935C187.49 95.0968 187.204 96.2708 186.523 97.2301C185.962 98.0114 185.993 97.9746 185.218 98.5473H185.284C186.848 98.9113 188.674 99.617 189.504 100.994C190.148 102.076 190.148 103.454 189.757 104.653C189.367 105.853 188.596 107.138 187.815 108.13C189.4 109.056 190.582 110.662 190.999 112.45C191.299 113.748 191.219 115.117 191.592 116.403C192.101 118.152 193.732 119.263 195.25 120.404C194.272 122.022 193.861 123.914 193.575 125.781C193.289 127.647 193.105 129.547 192.53 131.347C191.956 133.147 190.841 134.91 189.238 135.914C191.07 137.141 192.068 139.497 191.684 141.663C191.297 143.829 189.543 145.697 187.398 146.21C187.279 146.061 186.654 146.225 186.555 146.388C186.457 146.552 186.472 146.752 186.484 146.949C186.654 148.886 186.829 150.829 187.318 152.708C187.496 153.381 187.723 154.06 188.179 154.582C188.688 155.163 189.426 155.482 190.138 155.782C189.12 156.944 188.78 158.693 189.224 160.174C189.61 161.473 190.557 162.544 190.98 163.829C191.356 164.97 191.397 166.406 191.26 167.607C191.005 168.318 191.287 169.133 191.755 169.726C192.223 170.321 192.866 170.75 193.458 171.227C194.34 171.933 195.139 172.741 195.832 173.634C196.256 174.182 196.648 174.784 196.771 175.463C196.904 176.355 196.573 177.275 196.096 178.058Z" fill="#B62F1D"/>
<mask id="mask0_60_56" style="mask-type:luminance" maskUnits="userSpaceOnUse" x="-15" y="57" width="214" height="237">
<path d="M-15 57.9818H198.859V293.998H-15V57.9818Z" fill="white"/>
</mask>
<g mask="url(#mask0_60_56)">
<path d="M-37.0895 77H198.957V294.096H-37.0895V77Z" fill="#B62F1D"/>
</g>
<path d="M406.43 208.002C405.299 209.86 403.377 210.956 401.477 212.015C402.281 213.175 402.252 214.734 401.894 216.1C401.537 217.466 400.886 218.743 400.522 220.107C400.161 221.473 400.253 223.279 401.044 224.443C399.954 224.49 399.04 225.363 398.594 226.366C398.155 227.368 398.085 228.481 397.991 229.571C397.899 230.661 397.752 231.786 397.183 232.719L397.208 232.725C398.772 233.344 400.4 234.007 401.508 235.279C401.831 235.654 402.105 236.075 402.275 236.533C402.663 237.586 402.504 238.783 402.07 239.814C401.637 240.851 400.952 241.759 400.279 242.655C401.158 243.528 402.598 244.514 402.997 245.69C403.248 246.441 403.273 247.251 403.383 248.034C403.772 250.814 405.246 253.428 405.154 256.234V256.238C405.148 256.526 404.937 256.766 404.692 256.913C404.444 257.06 404.168 257.142 403.917 257.271C403.044 257.717 402.582 258.707 402.4 259.674C402.218 260.642 402.246 261.638 402.042 262.597C401.627 264.554 400.128 266.144 398.825 267.668C399.535 268.557 400.255 269.459 400.659 270.523C401.062 271.582 401.109 272.842 400.506 273.804C399.768 274.982 397.993 275.544 396.65 275.896C397.641 276.857 398.69 277.917 398.887 279.283C399.022 280.232 398.729 281.2 398.852 282.149C398.958 282.969 399.373 283.726 399.907 284.354C400.439 284.979 401.089 285.507 401.729 286.029C400.567 287.769 400.686 290.261 401.23 292.283C401.776 294.304 402.741 296.192 403.277 298.219C403.962 300.802 403.915 303.576 403.152 306.137C399.68 306.961 395.654 306.969 392.274 305.813C390.722 305.28 389.233 304.547 387.628 304.202C386.021 303.856 384.089 303.909 382.782 304.899C382.185 303.915 381.265 303.128 380.2 302.702C378.963 302.203 377.591 302.185 376.274 301.974C374.957 301.764 373.491 301.197 372.749 300.088C372.432 301.475 371.781 302.79 370.861 303.878C370.534 304.267 370.135 304.648 369.632 304.723C369.252 304.776 368.876 304.648 368.518 304.506C367.17 303.979 365.841 303.171 364.657 302.338C363.954 302.304 363.32 302.76 362.836 303.265C362.349 303.768 361.926 304.359 361.335 304.735C359.818 305.691 357.754 304.946 356.086 305.597C354.716 306.128 353.554 307.423 352.806 308.691C352.326 308.28 351.681 308.139 351.054 308.086C350.428 308.035 349.796 308.057 349.181 307.916C348.261 307.711 347.453 307.165 346.555 306.879C345.285 306.47 343.891 306.593 342.625 306.177C341.19 305.707 340.065 304.594 339 303.523C337.669 304.519 337.053 304.74 335.507 305.355C334.886 305.601 334.211 305.817 333.563 305.66C333.023 305.527 332.577 305.151 332.185 304.758C331.032 303.611 330.099 302.134 329.455 300.633C327.768 301.5 325.67 300.857 323.859 301.43C322.595 301.835 321.464 302.909 321.024 304.167C320.11 303.294 318.651 303.287 317.444 303.664C316.238 304.04 315.148 304.725 313.941 305.102C312.306 305.605 310.49 305.5 308.926 304.803L308.932 304.463C308.339 306.713 306.728 308.677 304.638 309.691C304.045 309.978 303.391 310.195 302.746 310.096C302.201 310.008 301.714 309.708 301.268 309.387C299.634 308.219 298.24 306.713 297.197 304.991C295.34 305.308 293.447 305.623 291.719 304.873C290.834 304.492 290.067 303.854 289.165 303.519C287.748 302.997 286.049 303.336 284.935 304.357C284.712 303.273 283.779 302.371 282.773 301.919C281.759 301.469 280.641 301.346 279.539 301.228C278.438 301.111 277.318 300.982 276.31 300.518C276.136 302.13 275.49 303.367 274.402 304.568C273.962 305.055 273.429 305.5 272.785 305.601C272.37 305.664 271.94 305.576 271.535 305.466C270.059 305.067 268.66 304.4 267.423 303.502C265.407 304.193 264.213 306.302 262.134 306.767C261.156 306.983 260.113 306.791 259.134 307.006C258.367 307.176 257.682 307.581 256.926 307.804C255.594 308.196 254.085 308.014 252.895 308.724C252.268 307.3 250.738 306.141 249.245 305.711C248.366 305.46 247.434 305.441 246.538 305.249C244.829 304.887 242.958 303.568 241.923 302.162C241.154 302.872 241.013 303.005 240.107 303.533C239.198 304.061 238.132 304.371 237.102 304.218C236.159 304.079 235.296 303.539 234.693 302.807C234.084 302.074 233.593 300.855 233.47 299.91C232.679 301.177 231.225 301.956 229.745 302.107C228.73 302.214 227.7 302.05 226.698 302.236C225.297 302.502 223.817 303.696 223.23 304.991C221.993 304.077 220.331 303.958 218.801 304.171C216.345 304.51 214.061 305.582 211.671 306.222C208.911 306.961 205.056 306.979 202.877 306.141C202.11 303.58 202.069 300.806 202.754 298.223C203.292 296.202 204.259 294.308 204.799 292.287C205.345 290.265 205.467 287.773 204.302 286.033C204.946 285.511 205.59 284.99 206.124 284.358C206.655 283.724 207.072 282.975 207.177 282.153C207.299 281.204 207.003 280.236 207.142 279.287C207.342 277.921 208.389 276.861 209.379 275.9C208.033 275.554 206.263 274.986 205.525 273.808C204.919 272.846 204.966 271.586 205.371 270.527C205.776 269.465 206.496 268.557 207.203 267.672C205.905 266.148 204.404 264.567 203.987 262.601C203.782 261.64 203.817 260.646 203.629 259.678C203.447 258.711 202.985 257.721 202.112 257.275C201.86 257.146 201.578 257.064 201.339 256.917C201.094 256.77 200.883 256.531 200.877 256.242V256.238C200.779 253.436 202.253 250.818 202.646 248.038C202.758 247.255 202.781 246.445 203.034 245.694C203.433 244.518 204.866 243.538 205.752 242.659C205.071 241.763 204.392 240.855 203.958 239.818C203.527 238.781 203.361 237.586 203.754 236.537C203.924 236.075 204.2 235.652 204.523 235.283C205.623 234.011 207.259 233.342 208.823 232.729L208.847 232.723C208.279 231.786 208.138 230.665 208.038 229.575C207.946 228.485 207.874 227.366 207.434 226.37C206.995 225.374 206.081 224.496 204.985 224.447C205.776 223.275 205.87 221.475 205.506 220.111C205.144 218.747 204.494 217.47 204.136 216.104C203.778 214.738 203.748 213.181 204.551 212.02C202.654 210.96 200.732 209.864 199.601 208.007C199.172 207.309 198.879 206.477 199.026 205.673C199.139 205.063 199.488 204.525 199.871 204.032C200.49 203.229 201.206 202.502 202.004 201.868C202.535 201.447 203.11 201.054 203.533 200.521C203.954 199.989 204.206 199.263 203.977 198.616C203.854 197.545 203.891 196.254 204.228 195.225C204.609 194.069 205.459 193.11 205.805 191.942C206.203 190.613 205.899 189.042 204.985 187.999C205.625 187.729 206.285 187.443 206.743 186.919C207.154 186.451 207.359 185.841 207.516 185.238C207.962 183.55 208.115 181.797 208.267 180.063C208.285 179.893 208.297 179.705 208.201 179.56C208.115 179.412 207.551 179.267 207.447 179.402C205.525 178.94 203.948 177.269 203.598 175.318C203.245 173.366 204.148 171.256 205.794 170.155C204.357 169.253 203.351 167.668 202.836 166.052C202.32 164.434 202.155 162.728 201.899 161.053C201.642 159.376 201.265 157.676 200.394 156.222C201.758 155.197 203.228 154.208 203.68 152.631C204.013 151.483 203.936 150.246 204.212 149.08C204.586 147.468 205.647 146.032 207.07 145.2C206.369 144.31 205.676 143.154 205.326 142.077C204.975 140.999 204.968 139.763 205.555 138.79C206.293 137.552 207.939 136.92 209.346 136.593H209.403C208.706 136.077 208.735 136.112 208.232 135.411C207.622 134.554 207.359 133.494 207.199 132.451C207.042 131.408 206.97 130.346 206.678 129.334C206.702 128.612 206.316 127.757 205.713 127.364C205.314 127.107 204.793 126.943 204.598 126.509C204.476 126.227 204.533 125.894 204.692 125.636C204.85 125.378 205.136 125.137 205.406 124.99C205.318 122.102 204.142 119.371 203.396 116.575C202.476 113.147 202.196 109.555 202.572 106.027C204.756 105.191 208.929 105.395 211.687 106.133C214.078 106.774 216.362 107.845 218.818 108.185C220.341 108.396 222.005 108.279 223.246 107.365C223.833 108.666 225.314 109.862 226.714 110.12C227.718 110.308 228.747 110.142 229.761 110.249C231.25 110.4 232.697 111.179 233.487 112.445C233.615 111.503 234.106 110.29 234.711 109.549C235.319 108.817 236.18 108.285 237.118 108.138C238.157 107.978 239.216 108.295 240.124 108.823C241.032 109.345 241.173 109.48 241.94 110.194C242.982 108.788 244.845 107.469 246.557 107.105C247.452 106.917 248.383 106.894 249.262 106.643C250.763 106.215 252.286 105.062 252.912 103.63C254.108 104.34 255.613 104.152 256.942 104.55C257.692 104.773 258.383 105.178 259.152 105.348C260.136 105.565 261.173 105.373 262.15 105.587C264.231 106.05 265.426 108.167 267.44 108.852C268.677 107.956 270.075 107.281 271.554 106.888C271.963 106.778 272.386 106.69 272.801 106.755C273.445 106.853 273.985 107.299 274.418 107.786C275.502 108.989 276.152 110.224 276.328 111.836C277.334 111.374 278.455 111.243 279.555 111.126C280.657 111.008 281.775 110.885 282.79 110.435C283.802 109.983 284.728 109.081 284.951 107.997C286.065 109.022 287.765 109.357 289.182 108.835C290.089 108.502 290.85 107.864 291.735 107.481C293.463 106.737 295.357 107.054 297.213 107.365C298.256 105.641 299.651 104.141 301.286 102.969C301.736 102.646 302.217 102.348 302.763 102.26C303.413 102.159 304.069 102.376 304.654 102.663C306.746 103.677 308.357 105.641 308.948 107.89L308.942 107.551C310.508 106.855 312.324 106.749 313.958 107.254C315.164 107.629 316.254 108.314 317.46 108.69C318.669 109.064 320.121 109.054 321.041 108.187C321.474 109.441 322.605 110.519 323.877 110.924C325.687 111.498 327.784 110.852 329.471 111.721C330.115 110.22 331.048 108.749 332.203 107.596C332.596 107.203 333.039 106.829 333.579 106.694C334.23 106.536 334.902 106.751 335.524 106.999C337.064 107.614 337.685 107.837 339.016 108.833C340.082 107.76 341.2 106.653 342.642 106.178C343.907 105.761 345.308 105.886 346.574 105.475C347.469 105.189 348.277 104.642 349.197 104.438C349.813 104.303 350.446 104.325 351.072 104.268C351.7 104.215 352.344 104.068 352.822 103.665C353.573 104.929 354.726 106.232 356.102 106.759C357.779 107.404 359.842 106.659 361.353 107.62C361.95 107.995 362.365 108.586 362.852 109.091C363.339 109.594 363.97 110.052 364.674 110.016C365.856 109.191 367.193 108.381 368.534 107.847C368.892 107.708 369.266 107.578 369.649 107.631C370.152 107.702 370.55 108.083 370.878 108.475C371.798 109.566 372.448 110.879 372.765 112.268C373.509 111.159 374.973 110.59 376.292 110.38C377.609 110.169 378.973 110.151 380.216 109.654C381.281 109.224 382.201 108.441 382.801 107.455C384.105 108.453 386.039 108.504 387.645 108.152C389.25 107.807 390.738 107.068 392.29 106.541C395.67 105.387 400.011 105.199 403.491 106.025C403.868 109.553 403.585 113.145 402.667 116.573C401.917 119.369 400.739 122.093 400.657 124.988C400.927 125.127 401.207 125.368 401.373 125.632C401.537 125.898 401.588 126.231 401.465 126.505C401.273 126.945 400.749 127.105 400.353 127.362C399.747 127.755 399.361 128.61 399.386 129.33C399.097 130.344 399.028 131.404 398.864 132.449C398.701 133.492 398.443 134.546 397.832 135.407C397.329 136.11 397.357 136.075 396.66 136.591H396.717C398.124 136.918 399.764 137.552 400.508 138.788C401.089 139.759 401.089 140.997 400.737 142.074C400.385 143.152 399.694 144.306 398.993 145.198C400.416 146.03 401.477 147.47 401.852 149.076C402.121 150.244 402.05 151.473 402.383 152.629C402.841 154.199 404.307 155.195 405.671 156.22C404.792 157.674 404.422 159.372 404.164 161.049C403.909 162.726 403.743 164.432 403.228 166.048C402.712 167.666 401.71 169.247 400.269 170.151C401.917 171.254 402.813 173.368 402.467 175.314C402.119 177.259 400.545 178.936 398.617 179.398C398.512 179.265 397.95 179.41 397.862 179.558C397.774 179.705 397.785 179.885 397.797 180.061C397.95 181.801 398.108 183.546 398.547 185.236C398.705 185.839 398.911 186.448 399.32 186.917C399.776 187.438 400.439 187.725 401.079 187.995C400.165 189.04 399.86 190.609 400.259 191.94C400.604 193.106 401.455 194.067 401.835 195.221C402.175 196.246 402.209 197.536 402.087 198.614C401.858 199.252 402.109 199.987 402.53 200.518C402.952 201.052 403.528 201.439 404.06 201.866C404.851 202.498 405.571 203.227 406.193 204.028C406.573 204.521 406.925 205.061 407.037 205.671C407.156 206.473 406.857 207.297 406.43 208.002Z" fill="#B62F1D"/>
<path d="M207.14 382.643C205.88 384.711 203.74 385.932 201.627 387.112C202.521 388.405 202.488 390.139 202.089 391.659C201.691 393.181 200.967 394.602 200.564 396.122C200.159 397.644 200.263 399.652 201.145 400.949C199.93 401.002 198.912 401.976 198.417 403.091C197.928 404.207 197.849 405.445 197.744 406.66C197.64 407.873 197.476 409.126 196.845 410.163L196.871 410.17C198.613 410.861 200.427 411.599 201.66 413.015C202.02 413.432 202.327 413.902 202.515 414.41C202.946 415.584 202.77 416.917 202.286 418.065C201.803 419.218 201.04 420.231 200.292 421.227C201.269 422.2 202.873 423.297 203.316 424.608C203.596 425.442 203.625 426.344 203.748 427.218C204.179 430.31 205.823 433.221 205.719 436.346V436.352C205.713 436.671 205.478 436.939 205.204 437.103C204.93 437.266 204.623 437.358 204.343 437.502C203.371 437.997 202.856 439.101 202.654 440.177C202.449 441.253 202.484 442.363 202.255 443.431C201.793 445.611 200.122 447.381 198.673 449.076C199.464 450.068 200.263 451.073 200.715 452.255C201.165 453.435 201.216 454.838 200.544 455.908C199.724 457.219 197.746 457.847 196.252 458.237C197.354 459.309 198.521 460.489 198.742 462.009C198.891 463.067 198.566 464.142 198.703 465.2C198.822 466.114 199.284 466.955 199.877 467.654C200.47 468.354 201.194 468.941 201.905 469.522C200.613 471.459 200.744 474.232 201.351 476.484C201.959 478.734 203.034 480.837 203.629 483.093C204.392 485.97 204.341 489.057 203.492 491.908C199.623 492.826 195.141 492.835 191.377 491.55C189.649 490.955 187.993 490.141 186.206 489.754C184.419 489.37 182.266 489.429 180.812 490.532C180.145 489.435 179.121 488.56 177.935 488.085C176.557 487.531 175.031 487.511 173.565 487.275C172.097 487.04 170.465 486.408 169.637 485.175C169.285 486.719 168.562 488.181 167.537 489.396C167.173 489.828 166.727 490.251 166.169 490.335C165.744 490.395 165.327 490.251 164.928 490.094C163.429 489.507 161.947 488.607 160.63 487.68C159.847 487.642 159.141 488.149 158.6 488.711C158.06 489.272 157.589 489.93 156.931 490.348C155.24 491.413 152.946 490.583 151.087 491.307C149.56 491.9 148.267 493.342 147.433 494.753C146.899 494.297 146.182 494.14 145.484 494.08C144.785 494.023 144.082 494.048 143.397 493.892C142.372 493.663 141.473 493.056 140.475 492.736C139.06 492.28 137.508 492.417 136.099 491.953C134.5 491.432 133.249 490.192 132.061 488.998C130.58 490.108 129.895 490.354 128.174 491.039C127.482 491.313 126.732 491.554 126.008 491.378C125.407 491.229 124.912 490.812 124.475 490.374C123.189 489.098 122.152 487.451 121.434 485.782C119.555 486.748 117.22 486.03 115.204 486.67C113.795 487.12 112.537 488.314 112.047 489.718C111.028 488.744 109.405 488.738 108.061 489.157C106.718 489.574 105.503 490.337 104.16 490.757C102.34 491.317 100.318 491.2 98.5779 490.423L98.584 490.047C97.9235 492.552 96.1303 494.737 93.8034 495.868C93.1429 496.187 92.4129 496.428 91.6952 496.318C91.09 496.22 90.5461 495.886 90.0512 495.526C88.2314 494.228 86.6794 492.552 85.518 490.634C83.4487 490.986 81.3426 491.337 79.4185 490.503C78.4329 490.08 77.5782 489.368 76.5743 488.996C74.9957 488.415 73.1043 488.791 71.8652 489.928C71.6157 488.721 70.579 487.717 69.4565 487.214C68.3278 486.713 67.0825 486.576 65.8557 486.445C64.6309 486.314 63.3836 486.171 62.263 485.653C62.0667 487.449 61.349 488.826 60.1365 490.163C59.6478 490.703 59.0528 491.2 58.3351 491.311C57.8729 491.385 57.3965 491.284 56.9467 491.162C55.3027 490.718 53.7446 489.975 52.3664 488.975C50.1233 489.746 48.7922 492.094 46.4775 492.61C45.3877 492.851 44.2263 492.636 43.1385 492.878C42.2838 493.066 41.519 493.518 40.6786 493.765C39.1982 494.203 37.5154 494.001 36.1904 494.79C35.4911 493.205 33.7899 491.912 32.1275 491.436C31.148 491.155 30.1113 491.135 29.1135 490.922C27.2098 490.517 25.1283 489.049 23.973 487.484C23.1203 488.274 22.9629 488.423 21.9528 489.01C20.9406 489.597 19.7526 489.945 18.6055 489.773C17.5566 489.617 16.5976 489.016 15.9248 488.202C15.246 487.386 14.698 486.03 14.561 484.976C13.6797 486.386 12.0623 487.255 10.4142 487.423C9.28553 487.541 8.13638 487.359 7.02199 487.566C5.46389 487.86 3.81377 489.192 3.16149 490.634C1.78333 489.615 -0.0692177 489.484 -1.77045 489.72C-4.50429 490.098 -7.04796 491.292 -9.71023 492.004C-12.7814 492.826 -17.0754 492.847 -19.5005 491.912C-20.3552 489.063 -20.4022 485.975 -19.6375 483.099C-19.0384 480.847 -17.9629 478.74 -17.3617 476.488C-16.7544 474.238 -16.6174 471.463 -17.9158 469.526C-17.1981 468.945 -16.4804 468.364 -15.8874 467.658C-15.2924 466.955 -14.8282 466.12 -14.7117 465.206C-14.5747 464.146 -14.908 463.073 -14.7526 462.015C-14.5297 460.493 -13.3622 459.313 -12.26 458.244C-13.7609 457.857 -15.73 457.225 -16.554 455.914C-17.2247 454.842 -17.1736 453.441 -16.7237 452.259C-16.2739 451.079 -15.4703 450.066 -14.6831 449.082C-16.1308 447.385 -17.7993 445.624 -18.2634 443.437C-18.4924 442.366 -18.4536 441.259 -18.6622 440.181C-18.8646 439.105 -19.3799 438.003 -20.3532 437.506C-20.6333 437.363 -20.9461 437.271 -21.214 437.107C-21.488 436.943 -21.7211 436.675 -21.7272 436.356V436.35C-21.8377 433.231 -20.1957 430.314 -19.7581 427.222C-19.6334 426.348 -19.6089 425.448 -19.3267 424.612C-18.883 423.301 -17.286 422.211 -16.3005 421.233C-17.057 420.235 -17.8136 419.222 -18.2961 418.069C-18.7767 416.915 -18.9607 415.584 -18.5231 414.416C-18.335 413.9 -18.0283 413.43 -17.6684 413.019C-16.4436 411.601 -14.6238 410.859 -12.8816 410.174L-12.853 410.168C-13.4869 409.124 -13.6443 407.879 -13.7548 406.664C-13.859 405.451 -13.9367 404.203 -14.4254 403.095C-14.9162 401.986 -15.9345 401.008 -17.1531 400.955C-16.2718 399.65 -16.1676 397.646 -16.5724 396.126C-16.9773 394.608 -17.7011 393.185 -18.0999 391.665C-18.4965 390.143 -18.5292 388.409 -17.6357 387.116C-19.75 385.936 -21.8908 384.717 -23.1483 382.647C-23.6248 381.872 -23.9519 380.946 -23.7884 380.052C-23.6636 379.373 -23.2731 378.773 -22.8478 378.223C-22.1566 377.329 -21.3612 376.519 -20.4738 375.816C-19.8808 375.345 -19.2408 374.908 -18.7705 374.314C-18.3023 373.721 -18.0201 372.911 -18.2757 372.193C-18.4127 370.999 -18.3718 369.563 -17.9956 368.416C-17.5723 367.131 -16.6256 366.061 -16.2412 364.763C-15.7975 363.282 -16.1369 361.533 -17.1531 360.371C-16.4416 360.071 -15.7054 359.752 -15.1963 359.171C-14.7383 358.647 -14.5113 357.97 -14.3355 357.297C-13.8386 355.417 -13.6689 353.468 -13.4992 351.535C-13.4808 351.347 -13.4664 351.139 -13.5707 350.975C-13.6689 350.811 -14.2946 350.65 -14.4132 350.799C-16.554 350.284 -18.3084 348.424 -18.699 346.252C-19.0895 344.08 -18.0855 341.73 -16.2534 340.503C-17.8524 339.498 -18.973 337.735 -19.5475 335.935C-20.1201 334.133 -20.3041 332.235 -20.5904 330.368C-20.8766 328.503 -21.2958 326.611 -22.265 324.991C-20.7458 323.851 -19.11 322.747 -18.6069 320.992C-18.2368 319.714 -18.3207 318.337 -18.014 317.038C-17.5968 315.243 -16.415 313.645 -14.8303 312.719C-15.6134 311.727 -16.3843 310.44 -16.7749 309.241C-17.1654 308.041 -17.1715 306.664 -16.5193 305.582C-15.6973 304.204 -13.8652 303.5 -12.2989 303.136H-12.2335C-13.0105 302.561 -12.9777 302.6 -13.538 301.817C-14.2169 300.866 -14.5113 299.686 -14.6872 298.524C-14.863 297.362 -14.9428 296.18 -15.2679 295.053C-15.2413 294.249 -15.6727 293.298 -16.3434 292.86C-16.7871 292.574 -17.3678 292.39 -17.5846 291.907C-17.7216 291.594 -17.6561 291.222 -17.4803 290.933C-17.3044 290.647 -16.9855 290.379 -16.6849 290.216C-16.781 286.998 -18.0917 283.959 -18.9218 280.848C-19.9463 277.031 -20.2591 273.03 -19.842 269.103C-17.4087 268.169 -12.763 268.398 -9.69182 269.222C-7.02956 269.932 -4.48588 271.126 -1.75205 271.505C-0.054903 271.74 1.7956 271.609 3.1799 270.592C3.83217 272.041 5.48229 273.372 7.04243 273.658C8.15682 273.867 9.30393 273.685 10.4326 273.802C12.0889 273.971 13.7001 274.839 14.5814 276.248C14.7246 275.199 15.2726 273.847 15.9432 273.024C16.6221 272.208 17.5811 271.615 18.626 271.451C19.7792 271.276 20.9611 271.627 21.9712 272.214C22.9833 272.795 23.1387 272.945 23.9934 273.742C25.1549 272.176 27.2282 270.707 29.1319 270.302C30.1297 270.093 31.1664 270.069 32.1459 269.789C33.8164 269.31 35.5115 268.025 36.2088 266.434C37.5399 267.224 39.2166 267.015 40.697 267.459C41.5333 267.706 42.3022 268.156 43.1569 268.347C44.2529 268.586 45.4061 268.373 46.4959 268.613C48.8126 269.128 50.1417 271.484 52.3869 272.247C53.763 271.251 55.3211 270.498 56.9651 270.063C57.4211 269.938 57.8913 269.84 58.3555 269.911C59.0732 270.022 59.6723 270.519 60.1549 271.061C61.3613 272.398 62.0851 273.775 62.2814 275.569C63.404 275.055 64.6493 274.91 65.8761 274.779C67.1009 274.648 68.3482 274.511 69.4749 274.01C70.6036 273.507 71.6341 272.501 71.8836 271.296C73.1227 272.437 75.0141 272.81 76.5927 272.229C77.6028 271.858 78.4513 271.147 79.4369 270.721C81.361 269.893 83.4692 270.245 85.5364 270.59C86.6978 268.672 88.2498 267.001 90.0696 265.696C90.5726 265.338 91.1063 265.007 91.7136 264.906C92.4375 264.796 93.1695 265.037 93.8218 265.356C96.1507 266.485 97.944 268.672 98.6024 271.177L98.5963 270.799C100.338 270.024 102.361 269.905 104.178 270.468C105.524 270.885 106.736 271.648 108.08 272.067C109.423 272.484 111.043 272.472 112.067 271.507C112.55 272.904 113.809 274.104 115.222 274.554C117.238 275.192 119.573 274.475 121.453 275.442C122.17 273.771 123.207 272.133 124.493 270.848C124.931 270.41 125.428 269.993 126.027 269.844C126.75 269.668 127.501 269.909 128.192 270.185C129.908 270.869 130.599 271.118 132.079 272.227C133.267 271.032 134.512 269.799 136.117 269.269C137.526 268.807 139.086 268.944 140.493 268.488C141.491 268.169 142.393 267.561 143.417 267.332C144.1 267.183 144.806 267.207 145.503 267.144C146.202 267.085 146.92 266.921 147.454 266.471C148.288 267.88 149.572 269.33 151.106 269.917C152.972 270.635 155.267 269.807 156.949 270.875C157.616 271.292 158.078 271.953 158.62 272.513C159.16 273.073 159.865 273.583 160.648 273.544C161.965 272.623 163.452 271.721 164.946 271.128C165.345 270.973 165.762 270.828 166.188 270.889C166.748 270.967 167.192 271.39 167.556 271.828C168.58 273.041 169.304 274.503 169.658 276.049C170.486 274.816 172.117 274.182 173.583 273.949C175.052 273.714 176.571 273.693 177.953 273.139C179.139 272.662 180.164 271.789 180.83 270.693C182.284 271.803 184.437 271.861 186.224 271.47C188.011 271.083 189.67 270.261 191.397 269.674C195.162 268.388 199.994 268.181 203.87 269.099C204.288 273.026 203.973 277.027 202.95 280.844C202.114 283.957 200.803 286.992 200.713 290.214C201.014 290.369 201.327 290.637 201.509 290.931C201.691 291.226 201.75 291.596 201.613 291.903C201.398 292.394 200.818 292.57 200.374 292.856C199.701 293.294 199.27 294.247 199.296 295.049C198.977 296.178 198.898 297.358 198.716 298.52C198.534 299.681 198.247 300.856 197.566 301.815C197.006 302.596 197.039 302.559 196.262 303.132H196.327C197.894 303.498 199.717 304.202 200.548 305.578C201.192 306.66 201.192 308.039 200.803 309.237C200.411 310.44 199.642 311.725 198.859 312.714C200.443 313.643 201.625 315.247 202.042 317.034C202.343 318.333 202.265 319.703 202.635 320.988C203.144 322.737 204.776 323.847 206.295 324.989C205.316 326.607 204.905 328.498 204.619 330.366C204.332 332.233 204.151 334.131 203.576 335.931C203.001 337.733 201.885 339.494 200.282 340.501C202.114 341.726 203.112 344.082 202.727 346.248C202.341 348.414 200.587 350.282 198.442 350.797C198.325 350.646 197.697 350.809 197.601 350.973C197.503 351.136 197.515 351.337 197.528 351.533C197.697 353.47 197.873 355.415 198.364 357.293C198.54 357.966 198.769 358.645 199.225 359.167C199.732 359.747 200.47 360.067 201.182 360.367C200.163 361.529 199.826 363.278 200.27 364.761C200.654 366.059 201.601 367.129 202.024 368.414C202.402 369.555 202.441 370.991 202.304 372.191C202.049 372.903 202.331 373.717 202.799 374.312C203.269 374.906 203.909 375.337 204.502 375.812C205.383 376.517 206.185 377.325 206.876 378.219C207.299 378.767 207.692 379.369 207.817 380.048C207.948 380.939 207.616 381.86 207.14 382.643Z" fill="#B62F1D"/>
<mask id="mask1_60_56" style="mask-type:luminance" maskUnits="userSpaceOnUse" x="-15" y="262" width="225" height="237">
<path d="M-15 262.566H209.904V498.584H-15V262.566Z" fill="white"/>
</mask>
<g mask="url(#mask1_60_56)">
<path d="M-26.0437 262.566H210.003V498.682H-26.0437V262.566Z" fill="#B62F1D"/>
</g>
<path d="M417.473 412.587C416.343 414.444 414.421 415.541 412.523 416.6C413.325 417.762 413.296 419.318 412.938 420.685C412.58 422.051 411.93 423.327 411.566 424.694C411.204 426.058 411.296 427.864 412.09 429.028C411 429.075 410.084 429.948 409.64 430.95C409.2 431.955 409.129 433.067 409.037 434.155C408.943 435.246 408.796 436.373 408.227 437.303L408.252 437.309C409.816 437.929 411.443 438.592 412.552 439.864C412.875 440.238 413.151 440.662 413.321 441.118C413.707 442.173 413.55 443.368 413.114 444.399C412.681 445.438 411.996 446.344 411.323 447.24C412.202 448.115 413.642 449.099 414.04 450.275C414.292 451.028 414.316 451.835 414.427 452.619C414.815 455.398 416.29 458.012 416.198 460.819V460.825C416.191 461.111 415.981 461.35 415.735 461.498C415.49 461.645 415.214 461.727 414.962 461.856C414.089 462.302 413.627 463.292 413.443 464.259C413.261 465.226 413.292 466.223 413.087 467.184C412.67 469.139 411.172 470.728 409.869 472.252C410.579 473.144 411.298 474.046 411.703 475.108C412.108 476.167 412.153 477.427 411.55 478.388C410.812 479.566 409.037 480.129 407.695 480.481C408.685 481.442 409.734 482.501 409.932 483.868C410.065 484.819 409.773 485.784 409.896 486.733C410.002 487.554 410.419 488.31 410.951 488.938C411.484 489.566 412.135 490.092 412.773 490.613C411.613 492.354 411.73 494.845 412.276 496.868C412.822 498.889 413.787 500.777 414.32 502.804C415.005 505.389 414.958 508.16 414.198 510.721C410.724 511.546 406.698 511.554 403.318 510.398C401.766 509.866 400.277 509.134 398.672 508.786C397.067 508.441 395.132 508.494 393.828 509.484C393.229 508.5 392.309 507.715 391.243 507.287C390.006 506.788 388.636 506.772 387.319 506.561C386.001 506.35 384.537 505.782 383.792 504.673C383.475 506.062 382.825 507.375 381.905 508.465C381.578 508.852 381.179 509.232 380.676 509.308C380.296 509.361 379.92 509.232 379.562 509.091C378.216 508.565 376.885 507.756 375.701 506.923C374.998 506.888 374.366 507.344 373.879 507.85C373.393 508.353 372.969 508.946 372.381 509.32C370.861 510.275 368.8 509.531 367.13 510.181C365.76 510.713 364.6 512.008 363.85 513.276C363.369 512.865 362.725 512.724 362.099 512.673C361.472 512.619 360.84 512.642 360.224 512.503C359.304 512.296 358.497 511.752 357.601 511.464C356.329 511.055 354.935 511.177 353.669 510.762C352.234 510.292 351.111 509.179 350.044 508.107C348.712 509.103 348.099 509.326 346.551 509.94C345.93 510.185 345.257 510.402 344.607 510.245C344.067 510.112 343.623 509.735 343.231 509.345C342.075 508.195 341.143 506.719 340.499 505.219C338.812 506.084 336.714 505.442 334.904 506.015C333.639 506.42 332.508 507.494 332.068 508.754C331.154 507.878 329.696 507.874 328.488 508.25C327.281 508.625 326.192 509.31 324.985 509.686C323.349 510.189 321.534 510.085 319.969 509.388L319.976 509.048C319.385 511.298 317.773 513.262 315.682 514.276C315.091 514.562 314.434 514.779 313.79 514.681C313.246 514.593 312.758 514.292 312.314 513.971C310.678 512.805 309.284 511.298 308.241 509.576C306.384 509.893 304.491 510.21 302.763 509.457C301.877 509.079 301.111 508.439 300.209 508.103C298.792 507.582 297.093 507.921 295.978 508.942C295.755 507.858 294.825 506.956 293.817 506.506C292.803 506.054 291.684 505.931 290.582 505.814C289.482 505.696 288.362 505.567 287.356 505.105C287.18 506.716 286.536 507.952 285.446 509.152C285.006 509.639 284.472 510.085 283.828 510.185C283.413 510.251 282.984 510.161 282.581 510.05C281.103 509.652 279.704 508.985 278.467 508.087C276.453 508.778 275.257 510.887 273.177 511.351C272.2 511.568 271.157 511.376 270.18 511.593C269.411 511.76 268.726 512.165 267.969 512.388C266.64 512.783 265.129 512.599 263.939 513.309C263.311 511.885 261.784 510.725 260.289 510.296C259.41 510.044 258.48 510.026 257.584 509.834C255.873 509.472 254.004 508.152 252.967 506.747C252.2 507.457 252.059 507.59 251.151 508.118C250.241 508.645 249.176 508.956 248.145 508.803C247.203 508.664 246.342 508.124 245.739 507.391C245.129 506.659 244.637 505.44 244.514 504.495C243.723 505.761 242.269 506.543 240.788 506.694C239.774 506.798 238.744 506.635 237.742 506.821C236.341 507.087 234.861 508.281 234.274 509.576C233.037 508.662 231.374 508.543 229.845 508.756C227.389 509.095 225.105 510.167 222.715 510.807C219.956 511.546 216.1 511.564 213.92 510.725C213.154 508.165 213.113 505.393 213.798 502.808C214.337 500.787 215.303 498.893 215.842 496.872C216.388 494.849 216.511 492.358 215.346 490.62C215.99 490.098 216.634 489.574 217.167 488.942C217.701 488.308 218.116 487.56 218.222 486.737C218.345 485.788 218.047 484.823 218.186 483.872C218.386 482.506 219.435 481.446 220.425 480.485C219.077 480.139 217.306 479.571 216.568 478.392C215.965 477.431 216.012 476.171 216.415 475.112C216.82 474.05 217.54 473.142 218.249 472.256C216.949 470.733 215.448 469.151 215.033 467.188C214.826 466.227 214.863 465.231 214.675 464.263C214.493 463.296 214.031 462.308 213.156 461.86C212.904 461.731 212.624 461.649 212.383 461.502C212.137 461.355 211.927 461.115 211.921 460.829V460.823C211.822 458.023 213.297 455.403 213.691 452.625C213.802 451.84 213.824 451.032 214.078 450.281C214.477 449.103 215.912 448.123 216.795 447.246C216.116 446.348 215.435 445.44 215.004 444.403C214.571 443.368 214.405 442.171 214.8 441.122C214.967 440.66 215.243 440.236 215.566 439.868C216.666 438.596 218.302 437.929 219.866 437.313L219.891 437.307C219.323 436.371 219.181 435.25 219.083 434.16C218.989 433.071 218.918 431.951 218.478 430.956C218.038 429.958 217.124 429.081 216.031 429.034C216.822 427.862 216.914 426.062 216.552 424.698C216.188 423.333 215.538 422.055 215.18 420.689C214.822 419.323 214.793 417.766 215.595 416.604C213.697 415.545 211.775 414.448 210.645 412.591C210.217 411.894 209.925 411.061 210.07 410.257C210.183 409.648 210.532 409.11 210.915 408.617C211.536 407.813 212.25 407.087 213.047 406.453C213.581 406.032 214.153 405.639 214.577 405.107C214.998 404.573 215.251 403.847 215.022 403.203C214.9 402.129 214.935 400.841 215.274 399.81C215.654 398.654 216.503 397.695 216.848 396.527C217.247 395.198 216.942 393.627 216.031 392.584C216.668 392.314 217.329 392.027 217.787 391.506C218.198 391.035 218.402 390.426 218.562 389.822C219.006 388.135 219.159 386.382 219.312 384.648C219.329 384.478 219.341 384.29 219.247 384.144C219.159 383.997 218.597 383.852 218.49 383.987C216.568 383.525 214.992 381.854 214.642 379.902C214.29 377.951 215.192 375.84 216.838 374.74C215.403 373.838 214.395 372.255 213.879 370.637C213.366 369.019 213.201 367.313 212.943 365.638C212.685 363.961 212.309 362.261 211.438 360.809C212.804 359.782 214.272 358.792 214.724 357.215C215.057 356.068 214.982 354.83 215.256 353.665C215.632 352.053 216.693 350.617 218.116 349.785C217.413 348.895 216.722 347.739 216.37 346.661C216.018 345.583 216.012 344.348 216.599 343.374C217.337 342.139 218.983 341.507 220.39 341.178H220.447C219.75 340.662 219.779 340.697 219.276 339.995C218.666 339.14 218.402 338.079 218.245 337.036C218.085 335.993 218.016 334.933 217.724 333.919C217.746 333.197 217.36 332.342 216.756 331.949C216.358 331.691 215.836 331.528 215.642 331.094C215.519 330.812 215.577 330.478 215.736 330.221C215.894 329.963 216.182 329.722 216.452 329.576C216.364 326.686 215.186 323.956 214.442 321.162C213.522 317.732 213.239 314.14 213.616 310.614C215.802 309.775 219.973 309.98 222.731 310.718C225.121 311.358 227.408 312.43 229.861 312.77C231.385 312.98 233.049 312.864 234.292 311.95C234.877 313.25 236.359 314.447 237.76 314.705C238.762 314.893 239.793 314.729 240.805 314.833C242.293 314.985 243.741 315.764 244.53 317.03C244.659 316.087 245.152 314.874 245.755 314.134C246.364 313.402 247.225 312.87 248.164 312.723C249.201 312.563 250.26 312.88 251.168 313.408C252.077 313.929 252.217 314.064 252.983 314.78C254.026 313.373 255.889 312.054 257.6 311.69C258.496 311.502 259.428 311.479 260.306 311.227C261.806 310.8 263.33 309.646 263.955 308.215C265.152 308.924 266.657 308.736 267.986 309.135C268.736 309.358 269.427 309.763 270.196 309.933C271.18 310.15 272.216 309.957 273.196 310.174C275.275 310.636 276.469 312.751 278.485 313.439C279.72 312.541 281.121 311.868 282.597 311.473C283.008 311.362 283.43 311.275 283.845 311.34C284.491 311.438 285.029 311.886 285.462 312.371C286.546 313.574 287.196 314.809 287.372 316.421C288.38 315.958 289.498 315.828 290.601 315.711C291.701 315.594 292.821 315.472 293.833 315.02C294.848 314.57 295.772 313.666 295.997 312.582C297.109 313.608 298.808 313.942 300.225 313.42C301.133 313.087 301.896 312.449 302.779 312.066C304.509 311.324 306.4 311.639 308.259 311.95C309.302 310.225 310.694 308.726 312.33 307.554C312.78 307.231 313.261 306.932 313.807 306.844C314.457 306.744 315.113 306.961 315.7 307.247C317.792 308.262 319.403 310.225 319.994 312.477L319.988 312.138C321.552 311.44 323.368 311.334 325.002 311.839C326.208 312.213 327.298 312.899 328.506 313.275C329.713 313.649 331.164 313.639 332.085 312.772C332.52 314.026 333.651 315.103 334.921 315.508C336.73 316.083 338.828 315.439 340.515 316.306C341.161 314.807 342.092 313.334 343.247 312.181C343.639 311.788 344.085 311.414 344.623 311.279C345.273 311.121 345.948 311.336 346.568 311.583C348.109 312.199 348.731 312.422 350.06 313.418C351.125 312.344 352.246 311.238 353.687 310.763C354.951 310.348 356.352 310.471 357.617 310.06C358.513 309.773 359.323 309.227 360.243 309.023C360.856 308.888 361.49 308.91 362.116 308.853C362.744 308.8 363.388 308.654 363.866 308.249C364.619 309.513 365.772 310.816 367.148 311.344C368.825 311.988 370.886 311.246 372.397 312.205C372.994 312.579 373.409 313.173 373.896 313.676C374.382 314.179 375.016 314.637 375.718 314.6C376.901 313.776 378.237 312.966 379.58 312.432C379.936 312.293 380.312 312.162 380.692 312.215C381.195 312.287 381.594 312.667 381.923 313.06C382.844 314.15 383.492 315.463 383.809 316.852C384.553 315.746 386.019 315.175 387.336 314.964C388.655 314.754 390.019 314.735 391.26 314.238C392.325 313.809 393.245 313.025 393.844 312.042C395.149 313.038 397.083 313.091 398.688 312.737C400.293 312.391 401.782 311.653 403.334 311.125C406.716 309.972 411.055 309.783 414.537 310.61C414.911 314.138 414.629 317.73 413.711 321.158C412.961 323.954 411.783 326.678 411.701 329.572C411.971 329.713 412.253 329.953 412.417 330.217C412.58 330.482 412.634 330.816 412.511 331.092C412.317 331.532 411.795 331.689 411.396 331.947C410.793 332.34 410.405 333.195 410.429 333.917C410.143 334.929 410.071 335.991 409.908 337.034C409.744 338.077 409.487 339.13 408.875 339.991C408.372 340.695 408.401 340.66 407.704 341.176H407.763C409.17 341.503 410.808 342.137 411.554 343.372C412.133 344.346 412.133 345.581 411.783 346.659C411.429 347.737 410.738 348.891 410.037 349.782C411.46 350.615 412.521 352.055 412.895 353.662C413.165 354.828 413.096 356.058 413.429 357.213C413.885 358.784 415.351 359.78 416.715 360.805C415.836 362.259 415.465 363.959 415.21 365.634C414.952 367.311 414.789 369.017 414.271 370.633C413.756 372.251 412.754 373.834 411.315 374.736C412.961 375.838 413.856 377.953 413.511 379.9C413.165 381.845 411.589 383.521 409.662 383.983C409.556 383.85 408.994 383.995 408.906 384.142C408.818 384.29 408.83 384.47 408.84 384.646C408.994 386.386 409.151 388.131 409.591 389.82C409.75 390.424 409.955 391.033 410.364 391.502C410.822 392.023 411.484 392.312 412.122 392.582C411.208 393.625 410.904 395.195 411.302 396.525C411.65 397.691 412.499 398.652 412.879 399.806C413.218 400.83 413.253 402.121 413.13 403.199C412.901 403.839 413.155 404.571 413.576 405.103C413.997 405.637 414.572 406.024 415.106 406.451C415.897 407.085 416.615 407.811 417.238 408.615C417.617 409.106 417.97 409.646 418.081 410.255C418.199 411.057 417.901 411.884 417.473 412.587Z" fill="#B62F1D"/>
<mask id="mask2_60_56" style="mask-type:luminance" maskUnits="userSpaceOnUse" x="208" y="304" width="201" height="213">
<path d="M208.044 304.742H409V516.804H208.044V304.742Z" fill="white"/>
</mask>
<g mask="url(#mask2_60_56)">
<path d="M208.044 304.742H420.044V516.804H208.044V304.742Z" fill="#B62F1D"/>
</g>
<path d="M207.14 530.85C205.88 532.92 203.74 534.139 201.627 535.319C202.521 536.611 202.488 538.346 202.089 539.868C201.691 541.387 200.967 542.809 200.564 544.329C200.159 545.85 200.263 547.861 201.145 549.158C199.93 549.209 198.912 550.182 198.417 551.297C197.928 552.414 197.849 553.653 197.744 554.866C197.64 556.081 197.476 557.333 196.845 558.37L196.871 558.376C198.613 559.067 200.427 559.806 201.66 561.221C202.02 561.638 202.327 562.109 202.515 562.618C202.946 563.792 202.77 565.124 202.286 566.271C201.803 567.427 201.04 568.437 200.292 569.435C201.269 570.407 202.873 571.503 203.316 572.814C203.596 573.651 203.625 574.551 203.748 575.424C204.179 578.517 205.823 581.427 205.719 584.553V584.559C205.713 584.878 205.478 585.146 205.204 585.309C204.93 585.473 204.623 585.565 204.343 585.708C203.371 586.203 202.856 587.308 202.654 588.384C202.449 589.461 202.484 590.57 202.255 591.64C201.793 593.818 200.122 595.587 198.673 597.285C199.464 598.275 200.263 599.279 200.715 600.461C201.165 601.644 201.216 603.045 200.544 604.116C199.724 605.427 197.746 606.053 196.252 606.446C197.354 607.516 198.521 608.696 198.742 610.218C198.891 611.275 198.566 612.349 198.703 613.408C198.822 614.321 199.284 615.163 199.877 615.861C200.47 616.56 201.194 617.147 201.905 617.728C200.613 619.665 200.744 622.441 201.351 624.691C201.959 626.943 203.034 629.043 203.629 631.301C204.392 634.177 204.341 637.265 203.492 640.115C199.623 641.035 195.141 641.043 191.377 639.757C189.649 639.164 187.993 638.347 186.206 637.963C184.419 637.576 182.266 637.636 180.812 638.738C180.145 637.642 179.121 636.766 177.935 636.292C176.557 635.738 175.031 635.717 173.565 635.482C172.097 635.249 170.465 634.615 169.637 633.381C169.285 634.928 168.562 636.39 167.537 637.603C167.173 638.035 166.727 638.458 166.169 638.544C165.744 638.601 165.327 638.458 164.928 638.302C163.429 637.715 161.947 636.816 160.63 635.887C159.847 635.848 159.141 636.357 158.6 636.918C158.06 637.478 157.589 638.139 156.931 638.556C155.24 639.62 152.946 638.789 151.087 639.513C149.56 640.109 148.267 641.548 147.433 642.96C146.899 642.504 146.182 642.346 145.484 642.287C144.785 642.23 144.082 642.254 143.397 642.099C142.372 641.87 141.473 641.262 140.475 640.943C139.06 640.487 137.508 640.624 136.099 640.162C134.5 639.638 133.249 638.401 132.061 637.204C130.58 638.315 129.895 638.562 128.174 639.247C127.482 639.519 126.732 639.761 126.008 639.587C125.407 639.438 124.912 639.018 124.475 638.583C123.189 637.304 122.152 635.66 121.434 633.989C119.555 634.954 117.22 634.238 115.204 634.877C113.795 635.326 112.537 636.521 112.047 637.924C111.028 636.951 109.405 636.944 108.061 637.364C106.718 637.781 105.503 638.544 104.16 638.963C102.34 639.524 100.318 639.407 98.5779 638.632L98.584 638.253C97.9235 640.759 96.1303 642.943 93.8034 644.074C93.1429 644.394 92.4129 644.635 91.6952 644.524C91.09 644.426 90.5461 644.093 90.0512 643.735C88.2314 642.436 86.6794 640.759 85.518 638.84C83.4487 639.192 81.3426 639.546 79.4185 638.71C78.4329 638.286 77.5782 637.574 76.5743 637.202C74.9957 636.621 73.1043 637 71.8652 638.135C71.6157 636.928 70.579 635.924 69.4565 635.421C68.3278 634.919 67.0825 634.782 65.8557 634.652C64.6309 634.521 63.3836 634.377 62.263 633.862C62.0667 635.656 61.349 637.032 60.1365 638.37C59.6478 638.912 59.0528 639.407 58.3351 639.519C57.8729 639.591 57.3965 639.493 56.9467 639.37C55.3027 638.926 53.7446 638.182 52.3664 637.184C50.1233 637.953 48.7922 640.301 46.4775 640.818C45.3877 641.058 44.2263 640.845 43.1385 641.084C42.2838 641.274 41.519 641.724 40.6786 641.972C39.1982 642.41 37.5154 642.207 36.1904 642.999C35.4911 641.413 33.7899 640.121 32.1275 639.642C31.148 639.362 30.1113 639.342 29.1135 639.129C27.2098 638.724 25.1283 637.255 23.973 635.691C23.1203 636.48 22.9629 636.629 21.9528 637.218C20.9406 637.805 19.7526 638.151 18.6055 637.981C17.5566 637.826 16.5976 637.225 15.9248 636.408C15.246 635.592 14.698 634.236 14.561 633.185C13.6797 634.594 12.0623 635.461 10.4142 635.631C9.28553 635.748 8.13638 635.566 7.02199 635.774C5.46389 636.069 3.81377 637.398 3.16149 638.84C1.78333 637.822 -0.0692177 637.691 -1.77045 637.928C-4.50429 638.305 -7.04796 639.499 -9.71023 640.211C-12.7814 641.033 -17.0754 641.053 -19.5005 640.121C-20.3552 637.27 -20.4022 634.183 -19.6375 631.305C-19.0384 629.053 -17.9629 626.947 -17.3617 624.695C-16.7544 622.445 -16.6174 619.671 -17.9158 617.732C-17.1981 617.151 -16.4804 616.571 -15.8874 615.867C-15.2924 615.161 -14.8282 614.327 -14.7117 613.413C-14.5747 612.355 -14.908 611.279 -14.7526 610.222C-14.5297 608.7 -13.3622 607.52 -12.26 606.45C-13.7609 606.064 -15.73 605.432 -16.554 604.12C-17.2247 603.051 -17.1736 601.648 -16.7237 600.467C-16.2739 599.285 -15.4703 598.275 -14.6831 597.289C-16.1308 595.591 -17.7993 593.83 -18.2634 591.644C-18.4924 590.574 -18.4536 589.466 -18.6622 588.39C-18.8646 587.312 -19.3799 586.209 -20.3532 585.712C-20.6333 585.569 -20.9461 585.479 -21.214 585.315C-21.488 585.15 -21.7211 584.884 -21.7272 584.563V584.557C-21.8377 581.44 -20.1957 578.523 -19.7581 575.428C-19.6334 574.555 -19.6089 573.655 -19.3267 572.818C-18.883 571.507 -17.286 570.419 -16.3005 569.439C-17.057 568.441 -17.8136 567.429 -18.2961 566.275C-18.7767 565.122 -18.9607 563.79 -18.5231 562.622C-18.335 562.107 -18.0283 561.636 -17.6684 561.225C-16.4436 559.81 -14.6238 559.065 -12.8816 558.382L-12.853 558.376C-13.4869 557.331 -13.6443 556.085 -13.7548 554.87C-13.859 553.657 -13.9367 552.412 -14.4254 551.303C-14.9162 550.193 -15.9345 549.215 -17.1531 549.162C-16.2718 547.857 -16.1676 545.852 -16.5724 544.335C-16.9773 542.815 -17.7011 541.391 -18.0999 539.872C-18.4965 538.352 -18.5292 536.616 -17.6357 535.325C-19.75 534.143 -21.8908 532.924 -23.1483 530.856C-23.6248 530.079 -23.9519 529.152 -23.7884 528.258C-23.6636 527.579 -23.2731 526.98 -22.8478 526.43C-22.1566 525.536 -21.3612 524.728 -20.4738 524.022C-19.8808 523.554 -19.2408 523.116 -18.7705 522.521C-18.3023 521.928 -18.0201 521.12 -18.2757 520.402C-18.4127 519.208 -18.3718 517.772 -17.9956 516.624C-17.5723 515.338 -16.6256 514.268 -16.2412 512.969C-15.7975 511.488 -16.1369 509.74 -17.1531 508.578C-16.4416 508.277 -15.7054 507.958 -15.1963 507.377C-14.7383 506.856 -14.5113 506.177 -14.3355 505.504C-13.8386 503.624 -13.6689 501.675 -13.4992 499.744C-13.4808 499.554 -13.4664 499.345 -13.5707 499.184C-13.6689 499.02 -14.2946 498.856 -14.4132 499.006C-16.554 498.492 -18.3084 496.631 -18.699 494.459C-19.0895 492.287 -18.0855 489.936 -16.2534 488.709C-17.8524 487.705 -18.973 485.942 -19.5475 484.142C-20.1201 482.342 -20.3041 480.442 -20.5904 478.577C-20.8766 476.709 -21.2958 474.817 -22.265 473.199C-20.7458 472.058 -19.11 470.954 -18.6069 469.199C-18.2368 467.92 -18.3207 466.544 -18.014 465.245C-17.5968 463.451 -16.415 461.852 -14.8303 460.925C-15.6134 459.933 -16.3843 458.649 -16.7749 457.448C-17.1654 456.247 -17.1715 454.871 -16.5193 453.789C-15.6973 452.41 -13.8652 451.707 -12.2989 451.343H-12.2335C-13.0105 450.768 -12.9777 450.807 -13.538 450.025C-14.2169 449.072 -14.5113 447.892 -14.6872 446.73C-14.863 445.569 -14.9428 444.388 -15.2679 443.259C-15.2413 442.456 -15.6727 441.504 -16.3434 441.067C-16.7871 440.78 -17.3678 440.598 -17.5846 440.114C-17.7216 439.801 -17.6561 439.43 -17.4803 439.142C-17.3044 438.856 -16.9855 438.588 -16.6849 438.424C-16.781 435.207 -18.0917 432.167 -18.9218 429.054C-19.9463 425.238 -20.2591 421.237 -19.842 417.31C-17.4087 416.377 -12.763 416.604 -9.69182 417.429C-7.02956 418.14 -4.48588 419.333 -1.75205 419.713C-0.054903 419.946 1.7956 419.816 3.1799 418.799C3.83217 420.247 5.48229 421.579 7.04243 421.865C8.15682 422.076 9.30393 421.892 10.4326 422.008C12.0889 422.18 13.7001 423.047 14.5814 424.454C14.7246 423.405 15.2726 422.055 15.9432 421.231C16.6221 420.417 17.5811 419.822 18.626 419.658C19.7792 419.482 20.9611 419.836 21.9712 420.423C22.9833 421.004 23.1387 421.153 23.9934 421.949C25.1549 420.382 27.2282 418.914 29.1319 418.511C30.1297 418.3 31.1664 418.275 32.1459 417.995C33.8164 417.519 35.5115 416.234 36.2088 414.641C37.5399 415.43 39.2166 415.222 40.697 415.665C41.5333 415.913 42.3022 416.365 43.1569 416.553C44.2529 416.795 45.4061 416.58 46.4959 416.821C48.8126 417.335 50.1417 419.693 52.3869 420.456C53.763 419.458 55.3211 418.707 56.9651 418.269C57.4211 418.144 57.8913 418.046 58.3555 418.12C59.0732 418.23 59.6723 418.727 60.1549 419.269C61.3613 420.607 62.0851 421.982 62.2814 423.777C63.404 423.262 64.6493 423.117 65.8761 422.986C67.1009 422.855 68.3482 422.718 69.4749 422.217C70.6036 421.714 71.6341 420.709 71.8836 419.503C73.1227 420.644 75.0141 421.018 76.5927 420.437C77.6028 420.065 78.4513 419.353 79.4369 418.928C81.361 418.099 83.4692 418.451 85.5364 418.797C86.6978 416.878 88.2498 415.209 90.0696 413.904C90.5726 413.544 91.1063 413.213 91.7136 413.113C92.4375 413.004 93.1695 413.244 93.8218 413.563C96.1507 414.692 97.944 416.878 98.6024 419.384L98.5963 419.008C100.338 418.23 102.361 418.114 104.178 418.674C105.524 419.091 106.736 419.856 108.08 420.274C109.423 420.691 111.043 420.679 112.067 419.713C112.55 421.11 113.809 422.311 115.222 422.761C117.238 423.401 119.573 422.683 121.453 423.649C122.17 421.98 123.207 420.341 124.493 419.057C124.931 418.619 125.428 418.202 126.027 418.052C126.75 417.874 127.501 418.116 128.192 418.392C129.908 419.077 130.599 419.325 132.079 420.433C133.267 419.239 134.512 418.005 136.117 417.478C137.526 417.013 139.086 417.15 140.493 416.694C141.491 416.375 142.393 415.768 143.417 415.539C144.1 415.389 144.806 415.416 145.503 415.351C146.202 415.293 146.92 415.128 147.454 414.678C148.288 416.087 149.572 417.537 151.106 418.124C152.972 418.842 155.267 418.014 156.949 419.083C157.616 419.501 158.078 420.159 158.62 420.72C159.16 421.28 159.865 421.789 160.648 421.75C161.965 420.832 163.452 419.93 164.946 419.337C165.345 419.179 165.762 419.036 166.188 419.096C166.748 419.173 167.192 419.597 167.556 420.034C168.58 421.249 169.304 422.712 169.658 424.256C170.486 423.025 172.117 422.391 173.583 422.155C175.052 421.92 176.571 421.9 177.953 421.345C179.139 420.869 180.164 419.996 180.83 418.899C182.284 420.01 184.437 420.067 186.224 419.676C188.011 419.29 189.67 418.47 191.397 417.881C195.162 416.596 199.994 416.388 203.87 417.308C204.288 421.235 203.973 425.234 202.95 429.052C202.114 432.163 200.803 435.199 200.713 438.42C201.014 438.576 201.327 438.843 201.509 439.138C201.691 439.433 201.75 439.805 201.613 440.112C201.398 440.6 200.818 440.776 200.374 441.063C199.701 441.5 199.27 442.454 199.296 443.255C198.977 444.384 198.898 445.565 198.716 446.726C198.534 447.888 198.247 449.062 197.566 450.021C197.006 450.805 197.039 450.766 196.262 451.339H196.327C197.894 451.705 199.717 452.41 200.548 453.785C201.192 454.869 201.192 456.245 200.803 457.446C200.411 458.647 199.642 459.931 198.859 460.923C200.443 461.85 201.625 463.453 202.042 465.241C202.343 466.54 202.265 467.91 202.635 469.197C203.144 470.945 204.776 472.054 206.295 473.195C205.316 474.813 204.905 476.705 204.619 478.572C204.332 480.44 204.151 482.338 203.576 484.138C203.001 485.94 201.885 487.701 200.282 488.707C202.114 489.932 203.112 492.289 202.727 494.455C202.341 496.621 200.587 498.488 198.442 499.004C198.325 498.854 197.697 499.016 197.601 499.179C197.503 499.343 197.515 499.546 197.528 499.74C197.697 501.677 197.873 503.622 198.364 505.502C198.54 506.173 198.769 506.852 199.225 507.375C199.732 507.956 200.47 508.275 201.182 508.576C200.163 509.738 199.826 511.486 200.27 512.967C200.654 514.266 201.601 515.336 202.024 516.62C202.402 517.761 202.441 519.197 202.304 520.398C202.049 521.11 202.331 521.926 202.799 522.519C203.269 523.112 203.909 523.544 204.502 524.018C205.383 524.724 206.185 525.534 206.876 526.428C207.299 526.976 207.692 527.577 207.817 528.254C207.948 529.148 207.616 530.066 207.14 530.85Z" fill="#B62F1D"/>
<mask id="mask3_60_56" style="mask-type:luminance" maskUnits="userSpaceOnUse" x="-15" y="410" width="225" height="237">
<path d="M-15 410.773H209.904V646.791H-15V410.773Z" fill="white"/>
</mask>
<g mask="url(#mask3_60_56)">
<path d="M-26.0437 410.773H210.003V646.889H-26.0437V410.773Z" fill="#B62F1D"/>
</g>
<path d="M417.473 560.794C416.343 562.651 414.421 563.747 412.523 564.807C413.325 565.968 413.296 567.527 412.938 568.891C412.58 570.257 411.93 571.534 411.566 572.9C411.204 574.266 411.296 576.07 412.09 577.236C411 577.283 410.084 578.157 409.64 579.159C409.2 580.161 409.129 581.274 409.037 582.364C408.943 583.454 408.796 584.579 408.227 585.51L408.252 585.516C409.816 586.138 411.443 586.8 412.552 588.07C412.875 588.445 413.151 588.868 413.321 589.324C413.707 590.38 413.55 591.576 413.114 592.605C412.681 593.644 411.996 594.552 411.323 595.448C412.202 596.321 413.642 597.305 414.04 598.483C414.292 599.234 414.316 600.042 414.427 600.827C414.815 603.605 416.29 606.219 416.198 609.025V609.031C416.191 609.318 415.981 609.559 415.735 609.706C415.49 609.851 415.214 609.935 414.962 610.062C414.089 610.508 413.627 611.5 413.443 612.465C413.261 613.433 413.292 614.431 413.087 615.39C412.67 617.346 411.172 618.935 409.869 620.461C410.579 621.35 411.298 622.252 411.703 623.314C412.108 624.373 412.153 625.633 411.55 626.595C410.812 627.773 409.037 628.335 407.695 628.687C408.685 629.648 409.734 630.71 409.932 632.074C410.065 633.025 409.773 633.991 409.896 634.94C410.002 635.76 410.419 636.517 410.951 637.145C411.484 637.773 412.135 638.3 412.773 638.822C411.613 640.562 411.73 643.054 412.276 645.074C412.822 647.095 413.787 648.983 414.32 651.01C415.005 653.595 414.958 656.367 414.198 658.928C410.724 659.754 406.698 659.76 403.318 658.605C401.766 658.073 400.277 657.34 398.672 656.993C397.067 656.647 395.132 656.7 393.828 657.69C393.229 656.706 392.309 655.921 391.243 655.494C390.006 654.997 388.636 654.978 387.319 654.767C386.001 654.557 384.537 653.988 383.792 652.88C383.475 654.268 382.825 655.581 381.905 656.672C381.578 657.058 381.179 657.439 380.676 657.516C380.296 657.568 379.92 657.439 379.562 657.3C378.216 656.772 376.885 655.964 375.701 655.129C374.998 655.095 374.366 655.551 373.879 656.056C373.393 656.559 372.969 657.152 372.381 657.527C370.861 658.482 368.8 657.737 367.13 658.388C365.76 658.922 364.6 660.216 363.85 661.482C363.369 661.073 362.725 660.93 362.099 660.879C361.472 660.826 360.84 660.848 360.224 660.709C359.304 660.505 358.497 659.959 357.601 659.672C356.329 659.261 354.935 659.384 353.669 658.969C352.234 658.5 351.111 657.388 350.044 656.314C348.712 657.31 348.099 657.533 346.551 658.146C345.93 658.394 345.257 658.611 344.607 658.453C344.067 658.318 343.623 657.942 343.231 657.551C342.075 656.404 341.143 654.925 340.499 653.426C338.812 654.293 336.714 653.649 334.904 654.223C333.639 654.626 332.508 655.7 332.068 656.96C331.154 656.087 329.696 656.081 328.488 656.457C327.281 656.831 326.192 657.516 324.985 657.893C323.349 658.396 321.534 658.292 319.969 657.594L319.976 657.255C319.385 659.507 317.773 661.468 315.682 662.483C315.091 662.771 314.434 662.986 313.79 662.887C313.246 662.8 312.758 662.501 312.314 662.178C310.678 661.012 309.284 659.507 308.241 657.782C306.384 658.099 304.491 658.416 302.763 657.666C301.877 657.285 301.111 656.645 300.209 656.312C298.792 655.79 297.093 656.128 295.978 657.15C295.755 656.064 294.825 655.162 293.817 654.712C292.803 654.26 291.684 654.137 290.582 654.021C289.482 653.904 288.362 653.775 287.356 653.311C287.18 654.923 286.536 656.16 285.446 657.361C285.006 657.846 284.472 658.292 283.828 658.392C283.413 658.457 282.984 658.367 282.581 658.257C281.103 657.86 279.704 657.191 278.467 656.293C276.453 656.985 275.257 659.095 273.177 659.558C272.2 659.774 271.157 659.582 270.18 659.799C269.411 659.969 268.726 660.372 267.969 660.597C266.64 660.989 265.129 660.807 263.939 661.517C263.311 660.094 261.784 658.932 260.289 658.504C259.41 658.253 258.48 658.234 257.584 658.042C255.873 657.678 254.004 656.359 252.967 654.954C252.2 655.663 252.059 655.798 251.151 656.326C250.241 656.852 249.176 657.163 248.145 657.011C247.203 656.87 246.342 656.33 245.739 655.598C245.129 654.866 244.637 653.647 244.514 652.704C243.723 653.968 242.269 654.749 240.788 654.9C239.774 655.007 238.744 654.841 237.742 655.029C236.341 655.293 234.861 656.488 234.274 657.782C233.037 656.868 231.374 656.751 229.845 656.962C227.389 657.302 225.105 658.375 222.715 659.014C219.956 659.752 216.1 659.77 213.92 658.932C213.154 656.371 213.113 653.6 213.798 651.014C214.337 648.993 215.303 647.099 215.842 645.079C216.388 643.058 216.511 640.567 215.346 638.826C215.99 638.304 216.634 637.783 217.167 637.149C217.701 636.515 218.116 635.766 218.222 634.946C218.345 633.995 218.047 633.029 218.186 632.078C218.386 630.714 219.435 629.653 220.425 628.691C219.077 628.346 217.306 627.777 216.568 626.599C215.965 625.637 216.012 624.38 216.415 623.318C216.82 622.259 217.54 621.348 218.249 620.465C216.949 618.939 215.448 617.358 215.033 615.394C214.826 614.433 214.863 613.437 214.675 612.472C214.493 611.504 214.031 610.514 213.156 610.066C212.904 609.939 212.624 609.858 212.383 609.71C212.137 609.563 211.927 609.322 211.921 609.035V609.029C211.822 606.229 213.297 603.609 213.691 600.831C213.802 600.046 213.824 599.238 214.078 598.487C214.477 597.309 215.912 596.332 216.795 595.452C216.116 594.556 215.435 593.646 215.004 592.611C214.571 591.574 214.405 590.378 214.8 589.328C214.967 588.866 215.243 588.445 215.566 588.075C216.666 586.802 218.302 586.136 219.866 585.52L219.891 585.514C219.323 584.577 219.181 583.458 219.083 582.368C218.989 581.278 218.918 580.157 218.478 579.163C218.038 578.167 217.124 577.287 216.031 577.24C216.822 576.068 216.914 574.268 216.552 572.904C216.188 571.54 215.538 570.262 215.18 568.895C214.822 567.531 214.793 565.972 215.595 564.811C213.697 563.751 211.775 562.655 210.645 560.798C210.217 560.1 209.925 559.268 210.07 558.466C210.183 557.856 210.532 557.316 210.915 556.824C211.536 556.022 212.25 555.294 213.047 554.662C213.581 554.24 214.153 553.848 214.577 553.314C214.998 552.78 215.251 552.054 215.022 551.409C214.9 550.336 214.935 549.047 215.274 548.016C215.654 546.861 216.503 545.901 216.848 544.735C217.247 543.404 216.942 541.833 216.031 540.79C216.668 540.52 217.329 540.234 217.787 539.712C218.198 539.242 218.402 538.634 218.562 538.029C219.006 536.341 219.159 534.591 219.312 532.856C219.329 532.686 219.341 532.498 219.247 532.353C219.159 532.206 218.597 532.058 218.49 532.193C216.568 531.731 214.992 530.06 214.642 528.109C214.29 526.158 215.192 524.047 216.838 522.946C215.403 522.044 214.395 520.461 213.879 518.843C213.366 517.225 213.201 515.522 212.943 513.844C212.685 512.167 212.309 510.468 211.438 509.015C212.804 507.991 214.272 506.999 214.724 505.424C215.057 504.274 214.982 503.039 215.256 501.871C215.632 500.259 216.693 498.825 218.116 497.993C217.413 497.101 216.722 495.946 216.37 494.87C216.018 493.79 216.012 492.554 216.599 491.583C217.337 490.345 218.983 489.713 220.39 489.386H220.447C219.75 488.869 219.779 488.905 219.276 488.202C218.666 487.347 218.402 486.285 218.245 485.242C218.085 484.199 218.016 483.14 217.724 482.125C217.746 481.405 217.36 480.55 216.756 480.155C216.358 479.9 215.836 479.734 215.642 479.3C215.519 479.02 215.577 478.687 215.736 478.427C215.894 478.169 216.182 477.93 216.452 477.783C216.364 474.893 215.186 472.162 214.442 469.368C213.522 465.94 213.239 462.347 213.616 458.82C215.802 457.982 219.973 458.186 222.731 458.927C225.121 459.565 227.408 460.637 229.861 460.978C231.385 461.189 233.049 461.07 234.292 460.158C234.877 461.459 236.359 462.653 237.76 462.911C238.762 463.099 239.793 462.936 240.805 463.04C242.293 463.193 243.741 463.973 244.53 465.237C244.659 464.294 245.152 463.081 245.755 462.342C246.364 461.61 247.225 461.076 248.164 460.929C249.201 460.772 250.26 461.089 251.168 461.614C252.077 462.136 252.217 462.271 252.983 462.987C254.026 461.58 255.889 460.26 257.6 459.898C258.496 459.71 259.428 459.688 260.306 459.436C261.806 459.006 263.33 457.853 263.955 456.423C265.152 457.133 266.657 456.945 267.986 457.344C268.736 457.567 269.427 457.969 270.196 458.139C271.18 458.356 272.216 458.164 273.196 458.381C275.275 458.843 276.469 460.96 278.485 461.645C279.72 460.749 281.121 460.074 282.597 459.681C283.008 459.569 283.43 459.481 283.845 459.546C284.491 459.647 285.029 460.093 285.462 460.579C286.546 461.78 287.196 463.015 287.372 464.627C288.38 464.165 289.498 464.036 290.601 463.917C291.701 463.801 292.821 463.678 293.833 463.226C294.848 462.776 295.772 461.872 295.997 460.79C297.109 461.815 298.808 462.15 300.225 461.629C301.133 461.293 301.896 460.655 302.779 460.273C304.509 459.53 306.4 459.845 308.259 460.156C309.302 458.432 310.694 456.932 312.33 455.76C312.78 455.439 313.261 455.141 313.807 455.051C314.457 454.953 315.113 455.167 315.7 455.456C317.792 456.468 319.403 458.432 319.994 460.684L319.988 460.344C321.552 459.647 323.368 459.54 325.002 460.045C326.208 460.42 327.298 461.107 328.506 461.481C329.713 461.858 331.164 461.845 332.085 460.978C332.52 462.232 333.651 463.312 334.921 463.715C336.73 464.29 338.828 463.645 340.515 464.513C341.161 463.013 342.092 461.541 343.247 460.387C343.639 459.994 344.085 459.62 344.623 459.485C345.273 459.328 345.948 459.544 346.568 459.792C348.109 460.405 348.731 460.63 350.06 461.625C351.125 460.553 352.246 459.444 353.687 458.97C354.951 458.554 356.352 458.677 357.617 458.268C358.513 457.98 359.323 457.434 360.243 457.229C360.856 457.096 361.49 457.119 362.116 457.059C362.744 457.008 363.388 456.861 363.866 456.456C364.619 457.722 365.772 459.023 367.148 459.551C368.825 460.195 370.886 459.452 372.397 460.412C372.994 460.786 373.409 461.379 373.896 461.882C374.382 462.385 375.016 462.844 375.718 462.809C376.901 461.982 378.237 461.172 379.58 460.639C379.936 460.5 380.312 460.369 380.692 460.424C381.195 460.493 381.594 460.874 381.923 461.267C382.844 462.357 383.492 463.67 383.809 465.059C384.553 463.952 386.019 463.381 387.336 463.171C388.655 462.96 390.019 462.942 391.26 462.445C392.325 462.017 393.245 461.232 393.844 460.248C395.149 461.244 397.083 461.297 398.688 460.945C400.293 460.598 401.782 459.861 403.334 459.334C406.716 458.178 411.055 457.992 414.537 458.816C414.911 462.344 414.629 465.936 413.711 469.366C412.961 472.16 411.783 474.887 411.701 477.781C411.971 477.92 412.253 478.159 412.417 478.425C412.58 478.689 412.634 479.022 412.511 479.298C412.317 479.738 411.795 479.896 411.396 480.153C410.793 480.546 410.405 481.401 410.429 482.123C410.143 483.136 410.071 484.197 409.908 485.24C409.744 486.283 409.487 487.339 408.875 488.2C408.372 488.901 408.401 488.869 407.704 489.382H407.763C409.17 489.711 410.808 490.343 411.554 491.579C412.133 492.552 412.133 493.79 411.783 494.866C411.429 495.946 410.738 497.099 410.037 497.989C411.46 498.821 412.521 500.263 412.895 501.869C413.165 503.035 413.096 504.264 413.429 505.42C413.885 506.99 415.351 507.987 416.715 509.013C415.836 510.466 415.465 512.165 415.21 513.842C414.952 515.518 414.789 517.223 414.271 518.841C413.756 520.457 412.754 522.04 411.315 522.944C412.961 524.045 413.856 526.162 413.511 528.107C413.165 530.052 411.589 531.729 409.662 532.191C409.556 532.056 408.994 532.202 408.906 532.349C408.818 532.496 408.83 532.678 408.84 532.852C408.994 534.593 409.151 536.339 409.591 538.027C409.75 538.63 409.955 539.24 410.364 539.71C410.822 540.232 411.484 540.518 412.122 540.788C411.208 541.831 410.904 543.402 411.302 544.731C411.65 545.899 412.499 546.861 412.879 548.014C413.218 549.039 413.253 550.327 413.13 551.407C412.901 552.046 413.155 552.778 413.576 553.312C413.997 553.843 414.572 554.232 415.106 554.658C415.897 555.292 416.615 556.018 417.238 556.821C417.617 557.312 417.97 557.852 418.081 558.462C418.199 559.264 417.901 560.09 417.473 560.794Z" fill="#B62F1D"/>
<mask id="mask4_60_56" style="mask-type:luminance" maskUnits="userSpaceOnUse" x="208" y="452" width="201" height="214">
<path d="M208.044 452.948H409V665.011H208.044V452.948Z" fill="white"/>
</mask>
<g mask="url(#mask4_60_56)">
<path d="M208.044 452.948H420.044V665.011H208.044V452.948Z" fill="#B62F1D"/>
</g>
<mask id="mask5_60_56" style="mask-type:luminance" maskUnits="userSpaceOnUse" x="-18" y="593" width="439" height="141">
<path d="M-18 627.85L411.573 593L420.159 698.832L-9.41424 733.682L-18 627.85Z" fill="white"/>
</mask>
<g mask="url(#mask5_60_56)">
<mask id="mask6_60_56" style="mask-type:luminance" maskUnits="userSpaceOnUse" x="-77" y="572" width="578" height="180">
<path d="M500.904 687.29L-64.1965 751.234L-76.618 635.957L488.483 572.013L500.904 687.29Z" fill="white"/>
</mask>
<g mask="url(#mask6_60_56)">
<mask id="mask7_60_56" style="mask-type:luminance" maskUnits="userSpaceOnUse" x="-77" y="572" width="578" height="180">
<path d="M500.904 687.29L-64.1965 751.234L-76.618 635.957L488.483 572.013L500.904 687.29Z" fill="white"/>
</mask>
<g mask="url(#mask7_60_56)">
<path d="M-63.8633 723.39C-55.9716 693.459 -36.3415 670.37 -12.2317 654.819C27.5245 629.2 73.2837 618.869 119.562 620.796C148.802 622.014 177.999 628.139 205.923 638.431C233.018 648.437 259.5 661.281 287.736 667.011C361.215 682.078 443.815 648.848 490.114 587.163C461.352 648.875 401.003 692.914 336.709 704.589C318.841 707.867 300.705 708.662 282.827 706.536C245.214 703.124 211.042 684.866 176.729 673.79C103.04 651.455 -30.7081 643.96 -66.0027 733.313C-65.4453 729.98 -64.7741 726.635 -63.8633 723.39Z" fill="#B62F1D"/>
</g>
</g>
</g>
<path d="M419.436 578.073C418.306 579.93 416.384 581.026 414.486 582.086C415.288 583.248 415.259 584.806 414.901 586.17C414.543 587.537 413.893 588.813 413.529 590.179C413.167 591.546 413.259 593.35 414.053 594.515C412.963 594.563 412.047 595.436 411.603 596.438C411.163 597.44 411.092 598.553 411 599.643C410.906 600.733 410.758 601.858 410.19 602.789L410.215 602.795C411.779 603.417 413.406 604.08 414.515 605.35C414.838 605.724 415.114 606.147 415.284 606.604C415.67 607.659 415.513 608.855 415.077 609.884C414.644 610.923 413.959 611.831 413.286 612.727C414.165 613.601 415.605 614.585 416.003 615.763C416.255 616.513 416.279 617.321 416.39 618.107C416.778 620.884 418.253 623.498 418.16 626.304V626.311C418.154 626.597 417.944 626.838 417.698 626.986C417.453 627.131 417.177 627.215 416.925 627.341C416.052 627.787 415.59 628.779 415.406 629.745C415.224 630.712 415.255 631.71 415.05 632.67C414.633 634.625 413.134 636.214 411.832 637.74C412.542 638.63 413.261 639.532 413.666 640.593C414.071 641.653 414.116 642.913 413.513 643.874C412.775 645.052 411 645.615 409.658 645.966C410.648 646.928 411.697 647.989 411.895 649.354C412.028 650.305 411.736 651.27 411.859 652.219C411.965 653.039 412.382 653.796 412.914 654.424C413.447 655.052 414.098 655.58 414.736 656.101C413.576 657.842 413.693 660.333 414.239 662.354C414.785 664.375 415.75 666.262 416.283 668.289C416.968 670.875 416.921 673.646 416.161 676.207C412.687 677.033 408.661 677.039 405.281 675.884C403.729 675.352 402.24 674.62 400.635 674.272C399.03 673.926 397.095 673.98 395.791 674.97C395.192 673.986 394.272 673.2 393.206 672.773C391.969 672.276 390.599 672.257 389.282 672.047C387.964 671.836 386.5 671.267 385.755 670.159C385.438 671.548 384.788 672.861 383.868 673.951C383.541 674.338 383.142 674.718 382.639 674.796C382.259 674.847 381.882 674.718 381.525 674.579C380.179 674.051 378.848 673.243 377.664 672.409C376.961 672.374 376.329 672.83 375.842 673.335C375.356 673.838 374.932 674.432 374.343 674.806C372.824 675.761 370.763 675.017 369.093 675.667C367.723 676.201 366.563 677.496 365.813 678.762C365.332 678.353 364.688 678.209 364.062 678.158C363.435 678.105 362.803 678.128 362.187 677.988C361.267 677.784 360.46 677.238 359.564 676.951C358.292 676.54 356.898 676.663 355.632 676.248C354.197 675.78 353.074 674.667 352.007 673.593C350.675 674.589 350.062 674.812 348.514 675.426C347.893 675.673 347.22 675.89 346.57 675.732C346.03 675.597 345.586 675.221 345.193 674.83C344.038 673.683 343.106 672.204 342.462 670.705C340.775 671.572 338.677 670.928 336.867 671.503C335.602 671.906 334.471 672.979 334.031 674.239C333.117 673.366 331.659 673.36 330.451 673.736C329.244 674.111 328.155 674.796 326.948 675.172C325.312 675.675 323.497 675.571 321.932 674.873L321.939 674.534C321.348 676.786 319.736 678.747 317.645 679.762C317.054 680.05 316.397 680.265 315.753 680.167C315.209 680.079 314.721 679.78 314.277 679.457C312.641 678.291 311.246 676.786 310.204 675.062C308.347 675.379 306.454 675.696 304.726 674.945C303.84 674.565 303.074 673.924 302.172 673.591C300.755 673.069 299.056 673.407 297.941 674.43C297.718 673.343 296.788 672.441 295.78 671.992C294.766 671.539 293.647 671.417 292.545 671.3C291.445 671.184 290.325 671.055 289.319 670.59C289.143 672.202 288.499 673.44 287.409 674.64C286.969 675.125 286.435 675.571 285.791 675.671C285.376 675.737 284.947 675.647 284.544 675.536C283.066 675.139 281.667 674.47 280.43 673.573C278.416 674.264 277.22 676.375 275.14 676.837C274.163 677.054 273.12 676.862 272.143 677.078C271.374 677.248 270.689 677.651 269.932 677.876C268.603 678.269 267.092 678.087 265.902 678.796C265.274 677.373 263.747 676.211 262.252 675.784C261.373 675.532 260.443 675.514 259.547 675.321C257.835 674.957 255.967 673.638 254.93 672.233C254.163 672.943 254.022 673.078 253.114 673.605C252.204 674.131 251.139 674.442 250.108 674.29C249.166 674.149 248.305 673.609 247.702 672.877C247.092 672.145 246.6 670.926 246.477 669.983C245.686 671.247 244.232 672.028 242.751 672.18C241.737 672.286 240.707 672.12 239.705 672.309C238.304 672.572 236.824 673.767 236.237 675.062C235 674.147 233.337 674.031 231.808 674.241C229.352 674.581 227.068 675.655 224.678 676.293C221.919 677.031 218.063 677.05 215.883 676.211C215.117 673.65 215.076 670.879 215.761 668.294C216.3 666.273 217.266 664.379 217.805 662.358C218.351 660.337 218.474 657.846 217.308 656.105C217.953 655.584 218.597 655.062 219.13 654.428C219.664 653.794 220.079 653.045 220.185 652.225C220.308 651.274 220.01 650.309 220.149 649.358C220.349 647.993 221.398 646.932 222.388 645.97C221.04 645.625 219.269 645.056 218.531 643.878C217.928 642.917 217.975 641.659 218.378 640.597C218.783 639.538 219.503 638.628 220.212 637.744C218.912 636.218 217.411 634.637 216.996 632.674C216.789 631.712 216.826 630.716 216.638 629.751C216.456 628.783 215.994 627.793 215.119 627.345C214.867 627.219 214.587 627.137 214.346 626.99C214.1 626.842 213.89 626.601 213.884 626.315V626.308C213.785 623.508 215.26 620.888 215.654 618.111C215.765 617.325 215.787 616.517 216.041 615.767C216.439 614.589 217.875 613.611 218.758 612.731C218.079 611.836 217.398 610.925 216.967 609.89C216.534 608.853 216.368 607.657 216.763 606.608C216.93 606.145 217.206 605.724 217.529 605.354C218.629 604.082 220.265 603.415 221.829 602.799L221.854 602.793C221.286 601.856 221.144 600.737 221.046 599.647C220.952 598.557 220.881 597.436 220.441 596.442C220.001 595.446 219.087 594.567 217.993 594.52C218.785 593.348 218.877 591.548 218.515 590.183C218.151 588.819 217.501 587.541 217.143 586.175C216.785 584.81 216.756 583.252 217.558 582.09C215.66 581.03 213.738 579.934 212.608 578.077C212.18 577.38 211.888 576.547 212.033 575.745C212.145 575.136 212.495 574.596 212.878 574.103C213.499 573.301 214.213 572.573 215.01 571.941C215.544 571.52 216.116 571.127 216.54 570.593C216.961 570.059 217.214 569.333 216.985 568.689C216.863 567.615 216.898 566.326 217.237 565.296C217.617 564.14 218.466 563.181 218.811 562.015C219.21 560.683 218.905 559.112 217.993 558.069C218.631 557.799 219.292 557.513 219.75 556.991C220.161 556.521 220.365 555.913 220.525 555.308C220.969 553.621 221.122 551.87 221.275 550.135C221.292 549.966 221.304 549.777 221.21 549.632C221.122 549.485 220.56 549.338 220.453 549.473C218.531 549.01 216.955 547.339 216.605 545.388C216.253 543.437 217.155 541.326 218.801 540.226C217.366 539.324 216.358 537.741 215.842 536.123C215.329 534.505 215.164 532.801 214.906 531.124C214.648 529.447 214.272 527.747 213.401 526.295C214.767 525.27 216.235 524.278 216.687 522.703C217.02 521.554 216.945 520.318 217.219 519.15C217.595 517.539 218.656 516.105 220.079 515.272C219.376 514.38 218.685 513.225 218.333 512.149C217.981 511.069 217.975 509.834 218.562 508.862C219.3 507.625 220.946 506.993 222.353 506.665H222.41C221.713 506.148 221.742 506.185 221.239 505.481C220.629 504.626 220.365 503.565 220.208 502.522C220.048 501.478 219.979 500.419 219.687 499.404C219.709 498.684 219.323 497.829 218.719 497.435C218.321 497.179 217.799 497.013 217.605 496.58C217.482 496.3 217.54 495.966 217.699 495.706C217.856 495.449 218.145 495.209 218.415 495.062C218.327 492.172 217.149 489.441 216.405 486.648C215.485 483.22 215.202 479.626 215.579 476.1C217.764 475.261 221.936 475.466 224.694 476.206C227.084 476.844 229.37 477.916 231.824 478.257C233.348 478.468 235.012 478.35 236.255 477.437C236.84 478.738 238.322 479.933 239.723 480.19C240.725 480.379 241.756 480.215 242.768 480.319C244.256 480.473 245.704 481.252 246.493 482.516C246.622 481.573 247.115 480.36 247.718 479.622C248.327 478.889 249.188 478.356 250.127 478.208C251.163 478.051 252.223 478.368 253.131 478.894C254.04 479.415 254.179 479.55 254.946 480.266C255.989 478.859 257.852 477.54 259.563 477.178C260.459 476.989 261.391 476.967 262.269 476.715C263.769 476.286 265.293 475.132 265.918 473.702C267.115 474.412 268.62 474.224 269.949 474.623C270.699 474.846 271.39 475.249 272.159 475.419C273.143 475.635 274.179 475.443 275.159 475.66C277.238 476.122 278.432 478.239 280.448 478.924C281.683 478.028 283.084 477.353 284.56 476.961C284.971 476.848 285.393 476.76 285.808 476.826C286.454 476.926 286.992 477.372 287.425 477.859C288.509 479.059 289.159 480.295 289.335 481.906C290.343 481.444 291.461 481.315 292.564 481.197C293.664 481.08 294.784 480.957 295.796 480.505C296.811 480.055 297.735 479.151 297.96 478.069C299.072 479.094 300.771 479.429 302.188 478.908C303.096 478.572 303.859 477.934 304.742 477.552C306.472 476.809 308.363 477.124 310.222 477.435C311.265 475.711 312.657 474.212 314.293 473.04C314.743 472.719 315.224 472.42 315.769 472.33C316.42 472.232 317.076 472.447 317.663 472.735C319.755 473.747 321.366 475.711 321.957 477.963L321.951 477.623C323.515 476.926 325.331 476.82 326.965 477.325C328.171 477.699 329.261 478.386 330.469 478.761C331.676 479.137 333.127 479.125 334.048 478.257C334.483 479.511 335.614 480.591 336.884 480.994C338.693 481.569 340.791 480.925 342.478 481.792C343.124 480.293 344.055 478.82 345.21 477.666C345.602 477.274 346.048 476.899 346.586 476.764C347.236 476.607 347.911 476.824 348.531 477.071C350.072 477.685 350.694 477.91 352.023 478.904C353.088 477.832 354.209 476.723 355.65 476.249C356.914 475.834 358.315 475.956 359.58 475.547C360.476 475.259 361.286 474.713 362.206 474.508C362.819 474.375 363.453 474.398 364.079 474.339C364.707 474.287 365.351 474.14 365.829 473.735C366.582 475.001 367.735 476.302 369.111 476.83C370.788 477.474 372.849 476.732 374.36 477.691C374.957 478.065 375.372 478.658 375.859 479.162C376.345 479.665 376.979 480.123 377.681 480.088C378.864 479.262 380.2 478.452 381.543 477.918C381.899 477.779 382.275 477.648 382.655 477.703C383.158 477.773 383.557 478.153 383.886 478.546C384.806 479.636 385.455 480.949 385.772 482.338C386.516 481.231 387.982 480.661 389.299 480.45C390.618 480.239 391.982 480.221 393.223 479.724C394.288 479.297 395.208 478.511 395.807 477.527C397.112 478.523 399.046 478.577 400.651 478.225C402.256 477.877 403.745 477.141 405.297 476.613C408.679 475.457 413.018 475.271 416.5 476.096C416.874 479.624 416.592 483.215 415.674 486.645C414.924 489.439 413.746 492.166 413.664 495.06C413.934 495.199 414.216 495.438 414.38 495.704C414.543 495.968 414.596 496.302 414.474 496.578C414.28 497.017 413.758 497.175 413.359 497.433C412.756 497.825 412.368 498.68 412.392 499.402C412.106 500.415 412.034 501.476 411.871 502.519C411.707 503.563 411.45 504.618 410.838 505.479C410.335 506.181 410.364 506.148 409.667 506.661H409.726C411.133 506.991 412.771 507.623 413.517 508.858C414.096 509.832 414.096 511.069 413.746 512.145C413.392 513.225 412.701 514.378 412 515.268C413.423 516.101 414.484 517.543 414.858 519.148C415.128 520.314 415.059 521.543 415.392 522.699C415.848 524.27 417.314 525.266 418.678 526.293C417.799 527.745 417.428 529.445 417.173 531.122C416.915 532.797 416.752 534.503 416.234 536.121C415.719 537.736 414.717 539.32 413.278 540.224C414.924 541.324 415.819 543.441 415.474 545.386C415.128 547.331 413.552 549.008 411.625 549.471C411.519 549.336 410.957 549.481 410.869 549.628C410.781 549.775 410.793 549.957 410.803 550.131C410.957 551.872 411.114 553.619 411.554 555.306C411.713 555.909 411.918 556.519 412.327 556.989C412.785 557.511 413.447 557.797 414.085 558.067C413.171 559.11 412.867 560.681 413.265 562.011C413.613 563.179 414.462 564.14 414.842 565.293C415.181 566.318 415.216 567.607 415.093 568.687C414.864 569.325 415.118 570.057 415.539 570.591C415.96 571.123 416.535 571.511 417.069 571.937C417.86 572.571 418.578 573.297 419.201 574.101C419.58 574.592 419.933 575.132 420.044 575.741C420.162 576.543 419.864 577.369 419.436 578.073Z" fill="#B62F1D"/>
<mask id="mask8_60_56" style="mask-type:luminance" maskUnits="userSpaceOnUse" x="210" y="470" width="199" height="213">
<path d="M210.007 470.227H409V682.29H210.007V470.227Z" fill="white"/>
</mask>
<g mask="url(#mask8_60_56)">
<path d="M210.007 470.227H422.007V682.29H210.007V470.227Z" fill="#B62F1D"/>
</g>
<path d="M155 91.7672L394.545 77L408.623 305.366L169.078 320.133L155 91.7672Z" fill="#B62F1D"/>
</g>
<defs>
<clipPath id="clip0_60_56">
<rect width="424" height="754" fill="white" transform="translate(-15)"/>
</clipPath>
</defs>
</svg>
